%TF.GenerationSoftware,KiCad,Pcbnew,(5.1.9)-1*%
%TF.CreationDate,2021-04-23T14:18:48+03:00*%
%TF.ProjectId,kicad_hydroponics_cirtuit_test,6b696361-645f-4687-9964-726f706f6e69,rev?*%
%TF.SameCoordinates,Original*%
%TF.FileFunction,Copper,L1,Top*%
%TF.FilePolarity,Positive*%
%FSLAX46Y46*%
G04 Gerber Fmt 4.6, Leading zero omitted, Abs format (unit mm)*
G04 Created by KiCad (PCBNEW (5.1.9)-1) date 2021-04-23 14:18:48*
%MOMM*%
%LPD*%
G01*
G04 APERTURE LIST*
%TA.AperFunction,ComponentPad*%
%ADD10O,1.600000X1.600000*%
%TD*%
%TA.AperFunction,ComponentPad*%
%ADD11R,1.600000X1.600000*%
%TD*%
%TA.AperFunction,ComponentPad*%
%ADD12O,2.200000X2.200000*%
%TD*%
%TA.AperFunction,ComponentPad*%
%ADD13R,2.200000X2.200000*%
%TD*%
%TA.AperFunction,SMDPad,CuDef*%
%ADD14R,1.700000X2.000000*%
%TD*%
%TA.AperFunction,SMDPad,CuDef*%
%ADD15R,1.000000X1.000000*%
%TD*%
%TA.AperFunction,SMDPad,CuDef*%
%ADD16R,2.500000X1.700000*%
%TD*%
%TA.AperFunction,Conductor*%
%ADD17C,0.250000*%
%TD*%
%TA.AperFunction,Conductor*%
%ADD18C,0.254000*%
%TD*%
%TA.AperFunction,Conductor*%
%ADD19C,0.100000*%
%TD*%
G04 APERTURE END LIST*
D10*
%TO.P,A1,16*%
%TO.N,Net-(A1-Pad16)*%
X191770000Y-55880000D03*
%TO.P,A1,15*%
%TO.N,Net-(A1-Pad15)*%
X194310000Y-55880000D03*
%TO.P,A1,30*%
%TO.N,Net-(A1-Pad30)*%
X154690000Y-55880000D03*
%TO.P,A1,14*%
%TO.N,Net-(A1-Pad14)*%
X194310000Y-104140000D03*
%TO.P,A1,29*%
%TO.N,Net-(A1-Pad29)*%
X157230000Y-55880000D03*
%TO.P,A1,13*%
%TO.N,Net-(A1-Pad13)*%
X191770000Y-104140000D03*
%TO.P,A1,28*%
%TO.N,Net-(A1-Pad28)*%
X159770000Y-55880000D03*
%TO.P,A1,12*%
%TO.N,Net-(A1-Pad12)*%
X189230000Y-104140000D03*
%TO.P,A1,27*%
%TO.N,Net-(A1-Pad27)*%
X162310000Y-55880000D03*
%TO.P,A1,11*%
%TO.N,Net-(A1-Pad11)*%
X186690000Y-104140000D03*
%TO.P,A1,26*%
%TO.N,Net-(A1-Pad26)*%
X164850000Y-55880000D03*
%TO.P,A1,10*%
%TO.N,Net-(A1-Pad10)*%
X184150000Y-104140000D03*
%TO.P,A1,25*%
%TO.N,Net-(A1-Pad25)*%
X167390000Y-55880000D03*
%TO.P,A1,9*%
%TO.N,Net-(A1-Pad9)*%
X181610000Y-104140000D03*
%TO.P,A1,24*%
%TO.N,Net-(A1-Pad24)*%
X169930000Y-55880000D03*
%TO.P,A1,8*%
%TO.N,Net-(A1-Pad8)*%
X176530000Y-104140000D03*
%TO.P,A1,23*%
%TO.N,Net-(A1-Pad23)*%
X172470000Y-55880000D03*
%TO.P,A1,7*%
%TO.N,GND*%
X173990000Y-104140000D03*
%TO.P,A1,22*%
%TO.N,Net-(A1-Pad22)*%
X176530000Y-55880000D03*
%TO.P,A1,6*%
%TO.N,Net-(A1-Pad6)*%
X171450000Y-104140000D03*
%TO.P,A1,21*%
%TO.N,Net-(A1-Pad21)*%
X179070000Y-55880000D03*
%TO.P,A1,5*%
%TO.N,Net-(A1-Pad5)*%
X168910000Y-104140000D03*
%TO.P,A1,20*%
%TO.N,Net-(A1-Pad20)*%
X181610000Y-55880000D03*
%TO.P,A1,4*%
%TO.N,Net-(A1-Pad4)*%
X166370000Y-104140000D03*
%TO.P,A1,19*%
%TO.N,Net-(A1-Pad19)*%
X184150000Y-55880000D03*
%TO.P,A1,3*%
%TO.N,Net-(A1-Pad3)*%
X163830000Y-104140000D03*
%TO.P,A1,18*%
%TO.N,Net-(A1-Pad18)*%
X186690000Y-55880000D03*
%TO.P,A1,2*%
%TO.N,Net-(A1-Pad2)*%
X161290000Y-104140000D03*
%TO.P,A1,17*%
%TO.N,Net-(A1-Pad17)*%
X189230000Y-55880000D03*
D11*
%TO.P,A1,1*%
%TO.N,Net-(A1-Pad1)*%
X158750000Y-104140000D03*
D10*
%TO.P,A1,31*%
%TO.N,Net-(A1-Pad31)*%
X152150000Y-55880000D03*
%TO.P,A1,32*%
%TO.N,Net-(A1-Pad32)*%
X149610000Y-55880000D03*
%TD*%
D12*
%TO.P,D3,2*%
%TO.N,Net-(D3-Pad2)*%
X175260000Y-86360000D03*
D13*
%TO.P,D3,1*%
%TO.N,Net-(A1-Pad8)*%
X175260000Y-76200000D03*
%TD*%
D14*
%TO.P,D2,1*%
%TO.N,GND*%
X172720000Y-71850000D03*
%TO.P,D2,2*%
%TO.N,Net-(D2-Pad2)*%
X172720000Y-67850000D03*
%TD*%
D15*
%TO.P,Q1,1*%
%TO.N,Net-(A1-Pad24)*%
X165370000Y-82970000D03*
%TO.P,Q1,2*%
%TO.N,GND*%
X165370000Y-84670000D03*
%TO.P,Q1,3*%
%TO.N,Net-(D3-Pad2)*%
X167370000Y-83820000D03*
%TD*%
D14*
%TO.P,R5,1*%
%TO.N,Net-(A1-Pad10)*%
X184150000Y-99790000D03*
%TO.P,R5,2*%
%TO.N,GND*%
X184150000Y-95790000D03*
%TD*%
%TO.P,R4,1*%
%TO.N,Net-(A1-Pad9)*%
X181610000Y-99790000D03*
%TO.P,R4,2*%
%TO.N,GND*%
X181610000Y-95790000D03*
%TD*%
D16*
%TO.P,J2,6*%
%TO.N,Net-(A1-Pad10)*%
X191770000Y-90170000D03*
%TO.P,J2,5*%
%TO.N,Net-(A1-Pad17)*%
X191770000Y-87630000D03*
%TO.P,J2,4*%
%TO.N,GND*%
X191770000Y-85090000D03*
%TO.P,J2,3*%
%TO.N,Net-(A1-Pad9)*%
X191770000Y-82550000D03*
%TO.P,J2,2*%
%TO.N,Net-(A1-Pad18)*%
X191770000Y-80010000D03*
%TO.P,J2,1*%
%TO.N,GND*%
X191770000Y-77470000D03*
%TD*%
%TO.P,J1,2*%
%TO.N,Net-(D3-Pad2)*%
X180340000Y-82550000D03*
%TO.P,J1,1*%
%TO.N,Net-(A1-Pad8)*%
X180340000Y-80010000D03*
%TD*%
D14*
%TO.P,R1,1*%
%TO.N,Net-(D1-Pad2)*%
X176530000Y-64230000D03*
%TO.P,R1,2*%
%TO.N,Net-(A1-Pad22)*%
X176530000Y-60230000D03*
%TD*%
%TO.P,R2,1*%
%TO.N,Net-(D2-Pad2)*%
X172720000Y-64230000D03*
%TO.P,R2,2*%
%TO.N,Net-(A1-Pad23)*%
X172720000Y-60230000D03*
%TD*%
%TO.P,R3,1*%
%TO.N,Net-(A1-Pad24)*%
X173990000Y-95790000D03*
%TO.P,R3,2*%
%TO.N,GND*%
X173990000Y-99790000D03*
%TD*%
%TO.P,D1,1*%
%TO.N,GND*%
X176530000Y-71850000D03*
%TO.P,D1,2*%
%TO.N,Net-(D1-Pad2)*%
X176530000Y-67850000D03*
%TD*%
D17*
%TO.N,Net-(A1-Pad10)*%
X184150000Y-99790000D02*
X184880000Y-99790000D01*
X184150000Y-104140000D02*
X184150000Y-99790000D01*
X191770000Y-92170000D02*
X191770000Y-90170000D01*
X184150000Y-99790000D02*
X191770000Y-92170000D01*
%TO.N,Net-(A1-Pad9)*%
X181610000Y-104140000D02*
X181610000Y-99790000D01*
X189230000Y-83590000D02*
X190270000Y-82550000D01*
X189230000Y-93145002D02*
X189230000Y-83590000D01*
X184585002Y-97790000D02*
X189230000Y-93145002D01*
X183610000Y-97790000D02*
X184585002Y-97790000D01*
X190270000Y-82550000D02*
X191770000Y-82550000D01*
X181610000Y-99790000D02*
X183610000Y-97790000D01*
%TO.N,Net-(A1-Pad24)*%
X169930000Y-55880000D02*
X169930000Y-58670000D01*
X165370000Y-63230000D02*
X165370000Y-82970000D01*
X169930000Y-58670000D02*
X165370000Y-63230000D01*
X173990000Y-95790000D02*
X164370000Y-95790000D01*
X164370000Y-95790000D02*
X162560000Y-93980000D01*
X165370000Y-83084998D02*
X165370000Y-82970000D01*
X162560000Y-85894998D02*
X165370000Y-83084998D01*
X162560000Y-93980000D02*
X162560000Y-85894998D01*
%TO.N,Net-(A1-Pad8)*%
X176530000Y-76200000D02*
X180340000Y-80010000D01*
X175260000Y-76200000D02*
X176530000Y-76200000D01*
X182880000Y-81050000D02*
X181840000Y-80010000D01*
X182880000Y-85090000D02*
X182880000Y-81050000D01*
X181840000Y-80010000D02*
X180340000Y-80010000D01*
X176530000Y-91440000D02*
X182880000Y-85090000D01*
X176530000Y-104140000D02*
X176530000Y-91440000D01*
%TO.N,Net-(A1-Pad23)*%
X172720000Y-56130000D02*
X172470000Y-55880000D01*
X172470000Y-59980000D02*
X172720000Y-60230000D01*
X172470000Y-55880000D02*
X172470000Y-59980000D01*
%TO.N,Net-(A1-Pad22)*%
X176530000Y-55880000D02*
X176530000Y-60230000D01*
%TO.N,Net-(A1-Pad18)*%
X189230000Y-78970000D02*
X190270000Y-80010000D01*
X190270000Y-80010000D02*
X191770000Y-80010000D01*
X189230000Y-74930000D02*
X189230000Y-78970000D01*
X190500000Y-73660000D02*
X189230000Y-74930000D01*
X190500000Y-60960000D02*
X190500000Y-73660000D01*
X186690000Y-57150000D02*
X190500000Y-60960000D01*
X186690000Y-55880000D02*
X186690000Y-57150000D01*
%TO.N,Net-(A1-Pad17)*%
X193040000Y-87630000D02*
X191770000Y-87630000D01*
X191770000Y-71120000D02*
X191770000Y-58420000D01*
X191770000Y-58420000D02*
X189230000Y-55880000D01*
X195580000Y-74930000D02*
X191770000Y-71120000D01*
X195580000Y-85320000D02*
X195580000Y-74930000D01*
X193270000Y-87630000D02*
X195580000Y-85320000D01*
X191770000Y-87630000D02*
X193270000Y-87630000D01*
%TO.N,Net-(D1-Pad2)*%
X176530000Y-64230000D02*
X176530000Y-67850000D01*
%TO.N,Net-(D2-Pad2)*%
X172720000Y-64230000D02*
X172720000Y-67850000D01*
%TO.N,Net-(D3-Pad2)*%
X172720000Y-83820000D02*
X175260000Y-86360000D01*
X167370000Y-83820000D02*
X172720000Y-83820000D01*
X179070000Y-82550000D02*
X180340000Y-82550000D01*
X175260000Y-86360000D02*
X179070000Y-82550000D01*
%TO.N,GND*%
X193270000Y-77470000D02*
X194310000Y-78510000D01*
X191770000Y-77470000D02*
X193270000Y-77470000D01*
X194310000Y-80155002D02*
X193185002Y-81280000D01*
X194310000Y-78510000D02*
X194310000Y-80155002D01*
X193185002Y-81280000D02*
X189230000Y-81280000D01*
X184150000Y-86360000D02*
X184150000Y-95790000D01*
X189230000Y-81280000D02*
X184150000Y-86360000D01*
%TD*%
D18*
%TO.N,GND*%
X196723000Y-54662606D02*
X196723000Y-66040000D01*
X196725440Y-66064776D01*
X196732667Y-66088601D01*
X196744403Y-66110557D01*
X196760197Y-66129803D01*
X199263000Y-68632606D01*
X199263000Y-101547394D01*
X196760197Y-104050197D01*
X196744403Y-104069443D01*
X196732667Y-104091399D01*
X196725440Y-104115224D01*
X196723000Y-104140000D01*
X196723000Y-106553000D01*
X130937000Y-106553000D01*
X130937000Y-103919872D01*
X142545000Y-103919872D01*
X142545000Y-104360128D01*
X142630890Y-104791925D01*
X142799369Y-105198669D01*
X143043962Y-105564729D01*
X143355271Y-105876038D01*
X143721331Y-106120631D01*
X144128075Y-106289110D01*
X144559872Y-106375000D01*
X145000128Y-106375000D01*
X145431925Y-106289110D01*
X145838669Y-106120631D01*
X146204729Y-105876038D01*
X146516038Y-105564729D01*
X146760631Y-105198669D01*
X146929110Y-104791925D01*
X147015000Y-104360128D01*
X147015000Y-103919872D01*
X146929110Y-103488075D01*
X146867776Y-103340000D01*
X157311928Y-103340000D01*
X157311928Y-104940000D01*
X157324188Y-105064482D01*
X157360498Y-105184180D01*
X157419463Y-105294494D01*
X157498815Y-105391185D01*
X157595506Y-105470537D01*
X157705820Y-105529502D01*
X157825518Y-105565812D01*
X157950000Y-105578072D01*
X159550000Y-105578072D01*
X159674482Y-105565812D01*
X159794180Y-105529502D01*
X159904494Y-105470537D01*
X160001185Y-105391185D01*
X160080537Y-105294494D01*
X160139502Y-105184180D01*
X160175812Y-105064482D01*
X160176643Y-105056039D01*
X160375241Y-105254637D01*
X160610273Y-105411680D01*
X160871426Y-105519853D01*
X161148665Y-105575000D01*
X161431335Y-105575000D01*
X161708574Y-105519853D01*
X161969727Y-105411680D01*
X162204759Y-105254637D01*
X162404637Y-105054759D01*
X162560000Y-104822241D01*
X162715363Y-105054759D01*
X162915241Y-105254637D01*
X163150273Y-105411680D01*
X163411426Y-105519853D01*
X163688665Y-105575000D01*
X163971335Y-105575000D01*
X164248574Y-105519853D01*
X164509727Y-105411680D01*
X164744759Y-105254637D01*
X164944637Y-105054759D01*
X165100000Y-104822241D01*
X165255363Y-105054759D01*
X165455241Y-105254637D01*
X165690273Y-105411680D01*
X165951426Y-105519853D01*
X166228665Y-105575000D01*
X166511335Y-105575000D01*
X166788574Y-105519853D01*
X167049727Y-105411680D01*
X167284759Y-105254637D01*
X167484637Y-105054759D01*
X167640000Y-104822241D01*
X167795363Y-105054759D01*
X167995241Y-105254637D01*
X168230273Y-105411680D01*
X168491426Y-105519853D01*
X168768665Y-105575000D01*
X169051335Y-105575000D01*
X169328574Y-105519853D01*
X169589727Y-105411680D01*
X169824759Y-105254637D01*
X170024637Y-105054759D01*
X170180000Y-104822241D01*
X170335363Y-105054759D01*
X170535241Y-105254637D01*
X170770273Y-105411680D01*
X171031426Y-105519853D01*
X171308665Y-105575000D01*
X171591335Y-105575000D01*
X171868574Y-105519853D01*
X172129727Y-105411680D01*
X172364759Y-105254637D01*
X172564637Y-105054759D01*
X172721680Y-104819727D01*
X172726067Y-104809135D01*
X172837615Y-104995131D01*
X173026586Y-105203519D01*
X173252580Y-105371037D01*
X173506913Y-105491246D01*
X173640961Y-105531904D01*
X173863000Y-105409915D01*
X173863000Y-104267000D01*
X173843000Y-104267000D01*
X173843000Y-104013000D01*
X173863000Y-104013000D01*
X173863000Y-102870085D01*
X173640961Y-102748096D01*
X173506913Y-102788754D01*
X173252580Y-102908963D01*
X173026586Y-103076481D01*
X172837615Y-103284869D01*
X172726067Y-103470865D01*
X172721680Y-103460273D01*
X172564637Y-103225241D01*
X172364759Y-103025363D01*
X172129727Y-102868320D01*
X171868574Y-102760147D01*
X171591335Y-102705000D01*
X171308665Y-102705000D01*
X171031426Y-102760147D01*
X170770273Y-102868320D01*
X170535241Y-103025363D01*
X170335363Y-103225241D01*
X170180000Y-103457759D01*
X170024637Y-103225241D01*
X169824759Y-103025363D01*
X169589727Y-102868320D01*
X169328574Y-102760147D01*
X169051335Y-102705000D01*
X168768665Y-102705000D01*
X168491426Y-102760147D01*
X168230273Y-102868320D01*
X167995241Y-103025363D01*
X167795363Y-103225241D01*
X167640000Y-103457759D01*
X167484637Y-103225241D01*
X167284759Y-103025363D01*
X167049727Y-102868320D01*
X166788574Y-102760147D01*
X166511335Y-102705000D01*
X166228665Y-102705000D01*
X165951426Y-102760147D01*
X165690273Y-102868320D01*
X165455241Y-103025363D01*
X165255363Y-103225241D01*
X165100000Y-103457759D01*
X164944637Y-103225241D01*
X164744759Y-103025363D01*
X164509727Y-102868320D01*
X164248574Y-102760147D01*
X163971335Y-102705000D01*
X163688665Y-102705000D01*
X163411426Y-102760147D01*
X163150273Y-102868320D01*
X162915241Y-103025363D01*
X162715363Y-103225241D01*
X162560000Y-103457759D01*
X162404637Y-103225241D01*
X162204759Y-103025363D01*
X161969727Y-102868320D01*
X161708574Y-102760147D01*
X161431335Y-102705000D01*
X161148665Y-102705000D01*
X160871426Y-102760147D01*
X160610273Y-102868320D01*
X160375241Y-103025363D01*
X160176643Y-103223961D01*
X160175812Y-103215518D01*
X160139502Y-103095820D01*
X160080537Y-102985506D01*
X160001185Y-102888815D01*
X159904494Y-102809463D01*
X159794180Y-102750498D01*
X159674482Y-102714188D01*
X159550000Y-102701928D01*
X157950000Y-102701928D01*
X157825518Y-102714188D01*
X157705820Y-102750498D01*
X157595506Y-102809463D01*
X157498815Y-102888815D01*
X157419463Y-102985506D01*
X157360498Y-103095820D01*
X157324188Y-103215518D01*
X157311928Y-103340000D01*
X146867776Y-103340000D01*
X146760631Y-103081331D01*
X146516038Y-102715271D01*
X146204729Y-102403962D01*
X145838669Y-102159369D01*
X145431925Y-101990890D01*
X145000128Y-101905000D01*
X144559872Y-101905000D01*
X144128075Y-101990890D01*
X143721331Y-102159369D01*
X143355271Y-102403962D01*
X143043962Y-102715271D01*
X142799369Y-103081331D01*
X142630890Y-103488075D01*
X142545000Y-103919872D01*
X130937000Y-103919872D01*
X130937000Y-100790000D01*
X172501928Y-100790000D01*
X172514188Y-100914482D01*
X172550498Y-101034180D01*
X172609463Y-101144494D01*
X172688815Y-101241185D01*
X172785506Y-101320537D01*
X172895820Y-101379502D01*
X173015518Y-101415812D01*
X173140000Y-101428072D01*
X173704250Y-101425000D01*
X173863000Y-101266250D01*
X173863000Y-99917000D01*
X174117000Y-99917000D01*
X174117000Y-101266250D01*
X174275750Y-101425000D01*
X174840000Y-101428072D01*
X174964482Y-101415812D01*
X175084180Y-101379502D01*
X175194494Y-101320537D01*
X175291185Y-101241185D01*
X175370537Y-101144494D01*
X175429502Y-101034180D01*
X175465812Y-100914482D01*
X175478072Y-100790000D01*
X175475000Y-100075750D01*
X175316250Y-99917000D01*
X174117000Y-99917000D01*
X173863000Y-99917000D01*
X172663750Y-99917000D01*
X172505000Y-100075750D01*
X172501928Y-100790000D01*
X130937000Y-100790000D01*
X130937000Y-98790000D01*
X172501928Y-98790000D01*
X172505000Y-99504250D01*
X172663750Y-99663000D01*
X173863000Y-99663000D01*
X173863000Y-98313750D01*
X174117000Y-98313750D01*
X174117000Y-99663000D01*
X175316250Y-99663000D01*
X175475000Y-99504250D01*
X175478072Y-98790000D01*
X175465812Y-98665518D01*
X175429502Y-98545820D01*
X175370537Y-98435506D01*
X175291185Y-98338815D01*
X175194494Y-98259463D01*
X175084180Y-98200498D01*
X174964482Y-98164188D01*
X174840000Y-98151928D01*
X174275750Y-98155000D01*
X174117000Y-98313750D01*
X173863000Y-98313750D01*
X173704250Y-98155000D01*
X173140000Y-98151928D01*
X173015518Y-98164188D01*
X172895820Y-98200498D01*
X172785506Y-98259463D01*
X172688815Y-98338815D01*
X172609463Y-98435506D01*
X172550498Y-98545820D01*
X172514188Y-98665518D01*
X172501928Y-98790000D01*
X130937000Y-98790000D01*
X130937000Y-55659872D01*
X143815000Y-55659872D01*
X143815000Y-56100128D01*
X143900890Y-56531925D01*
X144069369Y-56938669D01*
X144313962Y-57304729D01*
X144625271Y-57616038D01*
X144991331Y-57860631D01*
X145398075Y-58029110D01*
X145829872Y-58115000D01*
X146270128Y-58115000D01*
X146701925Y-58029110D01*
X147108669Y-57860631D01*
X147474729Y-57616038D01*
X147786038Y-57304729D01*
X148030631Y-56938669D01*
X148199110Y-56531925D01*
X148240537Y-56323658D01*
X148338320Y-56559727D01*
X148495363Y-56794759D01*
X148695241Y-56994637D01*
X148930273Y-57151680D01*
X149191426Y-57259853D01*
X149468665Y-57315000D01*
X149751335Y-57315000D01*
X150028574Y-57259853D01*
X150289727Y-57151680D01*
X150524759Y-56994637D01*
X150724637Y-56794759D01*
X150880000Y-56562241D01*
X151035363Y-56794759D01*
X151235241Y-56994637D01*
X151470273Y-57151680D01*
X151731426Y-57259853D01*
X152008665Y-57315000D01*
X152291335Y-57315000D01*
X152568574Y-57259853D01*
X152829727Y-57151680D01*
X153064759Y-56994637D01*
X153264637Y-56794759D01*
X153420000Y-56562241D01*
X153575363Y-56794759D01*
X153775241Y-56994637D01*
X154010273Y-57151680D01*
X154271426Y-57259853D01*
X154548665Y-57315000D01*
X154831335Y-57315000D01*
X155108574Y-57259853D01*
X155369727Y-57151680D01*
X155604759Y-56994637D01*
X155804637Y-56794759D01*
X155960000Y-56562241D01*
X156115363Y-56794759D01*
X156315241Y-56994637D01*
X156550273Y-57151680D01*
X156811426Y-57259853D01*
X157088665Y-57315000D01*
X157371335Y-57315000D01*
X157648574Y-57259853D01*
X157909727Y-57151680D01*
X158144759Y-56994637D01*
X158344637Y-56794759D01*
X158500000Y-56562241D01*
X158655363Y-56794759D01*
X158855241Y-56994637D01*
X159090273Y-57151680D01*
X159351426Y-57259853D01*
X159628665Y-57315000D01*
X159911335Y-57315000D01*
X160188574Y-57259853D01*
X160449727Y-57151680D01*
X160684759Y-56994637D01*
X160884637Y-56794759D01*
X161040000Y-56562241D01*
X161195363Y-56794759D01*
X161395241Y-56994637D01*
X161630273Y-57151680D01*
X161891426Y-57259853D01*
X162168665Y-57315000D01*
X162451335Y-57315000D01*
X162728574Y-57259853D01*
X162989727Y-57151680D01*
X163224759Y-56994637D01*
X163424637Y-56794759D01*
X163580000Y-56562241D01*
X163735363Y-56794759D01*
X163935241Y-56994637D01*
X164170273Y-57151680D01*
X164431426Y-57259853D01*
X164708665Y-57315000D01*
X164991335Y-57315000D01*
X165268574Y-57259853D01*
X165529727Y-57151680D01*
X165764759Y-56994637D01*
X165964637Y-56794759D01*
X166120000Y-56562241D01*
X166275363Y-56794759D01*
X166475241Y-56994637D01*
X166710273Y-57151680D01*
X166971426Y-57259853D01*
X167248665Y-57315000D01*
X167531335Y-57315000D01*
X167808574Y-57259853D01*
X168069727Y-57151680D01*
X168304759Y-56994637D01*
X168504637Y-56794759D01*
X168660000Y-56562241D01*
X168815363Y-56794759D01*
X169015241Y-56994637D01*
X169170000Y-57098044D01*
X169170001Y-58355197D01*
X164859003Y-62666196D01*
X164829999Y-62689999D01*
X164774871Y-62757174D01*
X164735026Y-62805724D01*
X164664455Y-62937753D01*
X164664454Y-62937754D01*
X164620997Y-63081015D01*
X164610000Y-63192668D01*
X164610000Y-63192678D01*
X164606324Y-63230000D01*
X164610000Y-63267322D01*
X164610001Y-81888954D01*
X164515506Y-81939463D01*
X164418815Y-82018815D01*
X164339463Y-82115506D01*
X164280498Y-82225820D01*
X164244188Y-82345518D01*
X164231928Y-82470000D01*
X164231928Y-83148268D01*
X162048998Y-85331199D01*
X162020000Y-85354997D01*
X161996202Y-85383995D01*
X161996201Y-85383996D01*
X161925026Y-85470722D01*
X161854454Y-85602752D01*
X161841260Y-85646250D01*
X161811525Y-85744277D01*
X161810998Y-85746013D01*
X161796324Y-85894998D01*
X161800001Y-85932330D01*
X161800000Y-93942678D01*
X161796324Y-93980000D01*
X161800000Y-94017322D01*
X161800000Y-94017332D01*
X161810997Y-94128985D01*
X161821676Y-94164188D01*
X161854454Y-94272246D01*
X161925026Y-94404276D01*
X161950656Y-94435506D01*
X162019999Y-94520001D01*
X162049003Y-94543804D01*
X163806201Y-96301003D01*
X163829999Y-96330001D01*
X163858997Y-96353799D01*
X163945724Y-96424974D01*
X164077753Y-96495546D01*
X164221014Y-96539003D01*
X164370000Y-96553677D01*
X164407333Y-96550000D01*
X172501928Y-96550000D01*
X172501928Y-96790000D01*
X172514188Y-96914482D01*
X172550498Y-97034180D01*
X172609463Y-97144494D01*
X172688815Y-97241185D01*
X172785506Y-97320537D01*
X172895820Y-97379502D01*
X173015518Y-97415812D01*
X173140000Y-97428072D01*
X174840000Y-97428072D01*
X174964482Y-97415812D01*
X175084180Y-97379502D01*
X175194494Y-97320537D01*
X175291185Y-97241185D01*
X175370537Y-97144494D01*
X175429502Y-97034180D01*
X175465812Y-96914482D01*
X175478072Y-96790000D01*
X175478072Y-94790000D01*
X175465812Y-94665518D01*
X175429502Y-94545820D01*
X175370537Y-94435506D01*
X175291185Y-94338815D01*
X175194494Y-94259463D01*
X175084180Y-94200498D01*
X174964482Y-94164188D01*
X174840000Y-94151928D01*
X173140000Y-94151928D01*
X173015518Y-94164188D01*
X172895820Y-94200498D01*
X172785506Y-94259463D01*
X172688815Y-94338815D01*
X172609463Y-94435506D01*
X172550498Y-94545820D01*
X172514188Y-94665518D01*
X172501928Y-94790000D01*
X172501928Y-95030000D01*
X164684802Y-95030000D01*
X163320000Y-93665199D01*
X163320000Y-86209799D01*
X164243393Y-85286407D01*
X164244188Y-85294482D01*
X164280498Y-85414180D01*
X164339463Y-85524494D01*
X164418815Y-85621185D01*
X164515506Y-85700537D01*
X164625820Y-85759502D01*
X164745518Y-85795812D01*
X164870000Y-85808072D01*
X165084250Y-85805000D01*
X165243000Y-85646250D01*
X165243000Y-84797000D01*
X165223000Y-84797000D01*
X165223000Y-84543000D01*
X165243000Y-84543000D01*
X165243000Y-84523000D01*
X165497000Y-84523000D01*
X165497000Y-84543000D01*
X165517000Y-84543000D01*
X165517000Y-84797000D01*
X165497000Y-84797000D01*
X165497000Y-85646250D01*
X165655750Y-85805000D01*
X165870000Y-85808072D01*
X165994482Y-85795812D01*
X166114180Y-85759502D01*
X166224494Y-85700537D01*
X166321185Y-85621185D01*
X166400537Y-85524494D01*
X166459502Y-85414180D01*
X166495812Y-85294482D01*
X166508072Y-85170000D01*
X166505000Y-84955750D01*
X166346252Y-84797002D01*
X166450273Y-84797002D01*
X166515506Y-84850537D01*
X166625820Y-84909502D01*
X166745518Y-84945812D01*
X166870000Y-84958072D01*
X167870000Y-84958072D01*
X167994482Y-84945812D01*
X168114180Y-84909502D01*
X168224494Y-84850537D01*
X168321185Y-84771185D01*
X168400537Y-84674494D01*
X168451046Y-84580000D01*
X172405199Y-84580000D01*
X173617286Y-85792088D01*
X173591675Y-85853919D01*
X173525000Y-86189117D01*
X173525000Y-86530883D01*
X173591675Y-86866081D01*
X173722463Y-87181831D01*
X173912337Y-87465998D01*
X174154002Y-87707663D01*
X174438169Y-87897537D01*
X174753919Y-88028325D01*
X175089117Y-88095000D01*
X175430883Y-88095000D01*
X175766081Y-88028325D01*
X176081831Y-87897537D01*
X176365998Y-87707663D01*
X176607663Y-87465998D01*
X176797537Y-87181831D01*
X176928325Y-86866081D01*
X176995000Y-86530883D01*
X176995000Y-86189117D01*
X176928325Y-85853919D01*
X176902714Y-85792088D01*
X178754247Y-83940555D01*
X178845820Y-83989502D01*
X178965518Y-84025812D01*
X179090000Y-84038072D01*
X181590000Y-84038072D01*
X181714482Y-84025812D01*
X181834180Y-83989502D01*
X181944494Y-83930537D01*
X182041185Y-83851185D01*
X182120000Y-83755148D01*
X182120000Y-84775198D01*
X176018998Y-90876201D01*
X175990000Y-90899999D01*
X175966202Y-90928997D01*
X175966201Y-90928998D01*
X175895026Y-91015724D01*
X175824454Y-91147754D01*
X175780998Y-91291015D01*
X175766324Y-91440000D01*
X175770001Y-91477332D01*
X175770000Y-102921957D01*
X175615241Y-103025363D01*
X175415363Y-103225241D01*
X175258320Y-103460273D01*
X175253933Y-103470865D01*
X175142385Y-103284869D01*
X174953414Y-103076481D01*
X174727420Y-102908963D01*
X174473087Y-102788754D01*
X174339039Y-102748096D01*
X174117000Y-102870085D01*
X174117000Y-104013000D01*
X174137000Y-104013000D01*
X174137000Y-104267000D01*
X174117000Y-104267000D01*
X174117000Y-105409915D01*
X174339039Y-105531904D01*
X174473087Y-105491246D01*
X174727420Y-105371037D01*
X174953414Y-105203519D01*
X175142385Y-104995131D01*
X175253933Y-104809135D01*
X175258320Y-104819727D01*
X175415363Y-105054759D01*
X175615241Y-105254637D01*
X175850273Y-105411680D01*
X176111426Y-105519853D01*
X176388665Y-105575000D01*
X176671335Y-105575000D01*
X176948574Y-105519853D01*
X177209727Y-105411680D01*
X177444759Y-105254637D01*
X177644637Y-105054759D01*
X177801680Y-104819727D01*
X177909853Y-104558574D01*
X177965000Y-104281335D01*
X177965000Y-103998665D01*
X177909853Y-103721426D01*
X177801680Y-103460273D01*
X177644637Y-103225241D01*
X177444759Y-103025363D01*
X177290000Y-102921957D01*
X177290000Y-96790000D01*
X180121928Y-96790000D01*
X180134188Y-96914482D01*
X180170498Y-97034180D01*
X180229463Y-97144494D01*
X180308815Y-97241185D01*
X180405506Y-97320537D01*
X180515820Y-97379502D01*
X180635518Y-97415812D01*
X180760000Y-97428072D01*
X181324250Y-97425000D01*
X181483000Y-97266250D01*
X181483000Y-95917000D01*
X180283750Y-95917000D01*
X180125000Y-96075750D01*
X180121928Y-96790000D01*
X177290000Y-96790000D01*
X177290000Y-94790000D01*
X180121928Y-94790000D01*
X180125000Y-95504250D01*
X180283750Y-95663000D01*
X181483000Y-95663000D01*
X181483000Y-94313750D01*
X181737000Y-94313750D01*
X181737000Y-95663000D01*
X184023000Y-95663000D01*
X184023000Y-94313750D01*
X183864250Y-94155000D01*
X183300000Y-94151928D01*
X183175518Y-94164188D01*
X183055820Y-94200498D01*
X182945506Y-94259463D01*
X182880000Y-94313222D01*
X182814494Y-94259463D01*
X182704180Y-94200498D01*
X182584482Y-94164188D01*
X182460000Y-94151928D01*
X181895750Y-94155000D01*
X181737000Y-94313750D01*
X181483000Y-94313750D01*
X181324250Y-94155000D01*
X180760000Y-94151928D01*
X180635518Y-94164188D01*
X180515820Y-94200498D01*
X180405506Y-94259463D01*
X180308815Y-94338815D01*
X180229463Y-94435506D01*
X180170498Y-94545820D01*
X180134188Y-94665518D01*
X180121928Y-94790000D01*
X177290000Y-94790000D01*
X177290000Y-91754801D01*
X183391004Y-85653798D01*
X183420001Y-85630001D01*
X183495366Y-85538169D01*
X183514974Y-85514277D01*
X183585546Y-85382247D01*
X183593812Y-85354997D01*
X183629003Y-85238986D01*
X183640000Y-85127333D01*
X183640000Y-85127324D01*
X183643676Y-85090001D01*
X183640000Y-85052678D01*
X183640000Y-81087322D01*
X183643676Y-81049999D01*
X183640000Y-81012676D01*
X183640000Y-81012667D01*
X183629003Y-80901014D01*
X183585546Y-80757753D01*
X183562986Y-80715546D01*
X183514974Y-80625723D01*
X183443799Y-80538997D01*
X183420001Y-80509999D01*
X183391003Y-80486201D01*
X182403804Y-79499002D01*
X182380001Y-79469999D01*
X182264276Y-79375026D01*
X182228072Y-79355674D01*
X182228072Y-79160000D01*
X182215812Y-79035518D01*
X182179502Y-78915820D01*
X182120537Y-78805506D01*
X182041185Y-78708815D01*
X181944494Y-78629463D01*
X181834180Y-78570498D01*
X181714482Y-78534188D01*
X181590000Y-78521928D01*
X179926730Y-78521928D01*
X177093804Y-75689003D01*
X177070001Y-75659999D01*
X176998072Y-75600968D01*
X176998072Y-75100000D01*
X176985812Y-74975518D01*
X176949502Y-74855820D01*
X176890537Y-74745506D01*
X176811185Y-74648815D01*
X176714494Y-74569463D01*
X176604180Y-74510498D01*
X176484482Y-74474188D01*
X176360000Y-74461928D01*
X174160000Y-74461928D01*
X174035518Y-74474188D01*
X173915820Y-74510498D01*
X173805506Y-74569463D01*
X173708815Y-74648815D01*
X173629463Y-74745506D01*
X173570498Y-74855820D01*
X173534188Y-74975518D01*
X173521928Y-75100000D01*
X173521928Y-77300000D01*
X173534188Y-77424482D01*
X173570498Y-77544180D01*
X173629463Y-77654494D01*
X173708815Y-77751185D01*
X173805506Y-77830537D01*
X173915820Y-77889502D01*
X174035518Y-77925812D01*
X174160000Y-77938072D01*
X176360000Y-77938072D01*
X176484482Y-77925812D01*
X176604180Y-77889502D01*
X176714494Y-77830537D01*
X176811185Y-77751185D01*
X176890537Y-77654494D01*
X176897210Y-77642011D01*
X178451928Y-79196730D01*
X178451928Y-80860000D01*
X178464188Y-80984482D01*
X178500498Y-81104180D01*
X178559463Y-81214494D01*
X178613222Y-81280000D01*
X178559463Y-81345506D01*
X178500498Y-81455820D01*
X178464188Y-81575518D01*
X178451928Y-81700000D01*
X178451928Y-82093270D01*
X175827912Y-84717286D01*
X175766081Y-84691675D01*
X175430883Y-84625000D01*
X175089117Y-84625000D01*
X174753919Y-84691675D01*
X174692088Y-84717286D01*
X173283804Y-83309003D01*
X173260001Y-83279999D01*
X173144276Y-83185026D01*
X173012247Y-83114454D01*
X172868986Y-83070997D01*
X172757333Y-83060000D01*
X172757322Y-83060000D01*
X172720000Y-83056324D01*
X172682678Y-83060000D01*
X168451046Y-83060000D01*
X168400537Y-82965506D01*
X168321185Y-82868815D01*
X168224494Y-82789463D01*
X168114180Y-82730498D01*
X167994482Y-82694188D01*
X167870000Y-82681928D01*
X166870000Y-82681928D01*
X166745518Y-82694188D01*
X166625820Y-82730498D01*
X166515506Y-82789463D01*
X166508072Y-82795564D01*
X166508072Y-82470000D01*
X166495812Y-82345518D01*
X166459502Y-82225820D01*
X166400537Y-82115506D01*
X166321185Y-82018815D01*
X166224494Y-81939463D01*
X166130000Y-81888954D01*
X166130000Y-72850000D01*
X171231928Y-72850000D01*
X171244188Y-72974482D01*
X171280498Y-73094180D01*
X171339463Y-73204494D01*
X171418815Y-73301185D01*
X171515506Y-73380537D01*
X171625820Y-73439502D01*
X171745518Y-73475812D01*
X171870000Y-73488072D01*
X172434250Y-73485000D01*
X172593000Y-73326250D01*
X172593000Y-71977000D01*
X172847000Y-71977000D01*
X172847000Y-73326250D01*
X173005750Y-73485000D01*
X173570000Y-73488072D01*
X173694482Y-73475812D01*
X173814180Y-73439502D01*
X173924494Y-73380537D01*
X174021185Y-73301185D01*
X174100537Y-73204494D01*
X174159502Y-73094180D01*
X174195812Y-72974482D01*
X174208072Y-72850000D01*
X175041928Y-72850000D01*
X175054188Y-72974482D01*
X175090498Y-73094180D01*
X175149463Y-73204494D01*
X175228815Y-73301185D01*
X175325506Y-73380537D01*
X175435820Y-73439502D01*
X175555518Y-73475812D01*
X175680000Y-73488072D01*
X176244250Y-73485000D01*
X176403000Y-73326250D01*
X176403000Y-71977000D01*
X176657000Y-71977000D01*
X176657000Y-73326250D01*
X176815750Y-73485000D01*
X177380000Y-73488072D01*
X177504482Y-73475812D01*
X177624180Y-73439502D01*
X177734494Y-73380537D01*
X177831185Y-73301185D01*
X177910537Y-73204494D01*
X177969502Y-73094180D01*
X178005812Y-72974482D01*
X178018072Y-72850000D01*
X178015000Y-72135750D01*
X177856250Y-71977000D01*
X176657000Y-71977000D01*
X176403000Y-71977000D01*
X175203750Y-71977000D01*
X175045000Y-72135750D01*
X175041928Y-72850000D01*
X174208072Y-72850000D01*
X174205000Y-72135750D01*
X174046250Y-71977000D01*
X172847000Y-71977000D01*
X172593000Y-71977000D01*
X171393750Y-71977000D01*
X171235000Y-72135750D01*
X171231928Y-72850000D01*
X166130000Y-72850000D01*
X166130000Y-70850000D01*
X171231928Y-70850000D01*
X171235000Y-71564250D01*
X171393750Y-71723000D01*
X172593000Y-71723000D01*
X172593000Y-70373750D01*
X172847000Y-70373750D01*
X172847000Y-71723000D01*
X174046250Y-71723000D01*
X174205000Y-71564250D01*
X174208072Y-70850000D01*
X175041928Y-70850000D01*
X175045000Y-71564250D01*
X175203750Y-71723000D01*
X176403000Y-71723000D01*
X176403000Y-70373750D01*
X176657000Y-70373750D01*
X176657000Y-71723000D01*
X177856250Y-71723000D01*
X178015000Y-71564250D01*
X178018072Y-70850000D01*
X178005812Y-70725518D01*
X177969502Y-70605820D01*
X177910537Y-70495506D01*
X177831185Y-70398815D01*
X177734494Y-70319463D01*
X177624180Y-70260498D01*
X177504482Y-70224188D01*
X177380000Y-70211928D01*
X176815750Y-70215000D01*
X176657000Y-70373750D01*
X176403000Y-70373750D01*
X176244250Y-70215000D01*
X175680000Y-70211928D01*
X175555518Y-70224188D01*
X175435820Y-70260498D01*
X175325506Y-70319463D01*
X175228815Y-70398815D01*
X175149463Y-70495506D01*
X175090498Y-70605820D01*
X175054188Y-70725518D01*
X175041928Y-70850000D01*
X174208072Y-70850000D01*
X174195812Y-70725518D01*
X174159502Y-70605820D01*
X174100537Y-70495506D01*
X174021185Y-70398815D01*
X173924494Y-70319463D01*
X173814180Y-70260498D01*
X173694482Y-70224188D01*
X173570000Y-70211928D01*
X173005750Y-70215000D01*
X172847000Y-70373750D01*
X172593000Y-70373750D01*
X172434250Y-70215000D01*
X171870000Y-70211928D01*
X171745518Y-70224188D01*
X171625820Y-70260498D01*
X171515506Y-70319463D01*
X171418815Y-70398815D01*
X171339463Y-70495506D01*
X171280498Y-70605820D01*
X171244188Y-70725518D01*
X171231928Y-70850000D01*
X166130000Y-70850000D01*
X166130000Y-63544801D01*
X166444801Y-63230000D01*
X171231928Y-63230000D01*
X171231928Y-65230000D01*
X171244188Y-65354482D01*
X171280498Y-65474180D01*
X171339463Y-65584494D01*
X171418815Y-65681185D01*
X171515506Y-65760537D01*
X171625820Y-65819502D01*
X171745518Y-65855812D01*
X171870000Y-65868072D01*
X171960000Y-65868072D01*
X171960001Y-66211928D01*
X171870000Y-66211928D01*
X171745518Y-66224188D01*
X171625820Y-66260498D01*
X171515506Y-66319463D01*
X171418815Y-66398815D01*
X171339463Y-66495506D01*
X171280498Y-66605820D01*
X171244188Y-66725518D01*
X171231928Y-66850000D01*
X171231928Y-68850000D01*
X171244188Y-68974482D01*
X171280498Y-69094180D01*
X171339463Y-69204494D01*
X171418815Y-69301185D01*
X171515506Y-69380537D01*
X171625820Y-69439502D01*
X171745518Y-69475812D01*
X171870000Y-69488072D01*
X173570000Y-69488072D01*
X173694482Y-69475812D01*
X173814180Y-69439502D01*
X173924494Y-69380537D01*
X174021185Y-69301185D01*
X174100537Y-69204494D01*
X174159502Y-69094180D01*
X174195812Y-68974482D01*
X174208072Y-68850000D01*
X174208072Y-66850000D01*
X174195812Y-66725518D01*
X174159502Y-66605820D01*
X174100537Y-66495506D01*
X174021185Y-66398815D01*
X173924494Y-66319463D01*
X173814180Y-66260498D01*
X173694482Y-66224188D01*
X173570000Y-66211928D01*
X173480000Y-66211928D01*
X173480000Y-65868072D01*
X173570000Y-65868072D01*
X173694482Y-65855812D01*
X173814180Y-65819502D01*
X173924494Y-65760537D01*
X174021185Y-65681185D01*
X174100537Y-65584494D01*
X174159502Y-65474180D01*
X174195812Y-65354482D01*
X174208072Y-65230000D01*
X174208072Y-63230000D01*
X175041928Y-63230000D01*
X175041928Y-65230000D01*
X175054188Y-65354482D01*
X175090498Y-65474180D01*
X175149463Y-65584494D01*
X175228815Y-65681185D01*
X175325506Y-65760537D01*
X175435820Y-65819502D01*
X175555518Y-65855812D01*
X175680000Y-65868072D01*
X175770000Y-65868072D01*
X175770001Y-66211928D01*
X175680000Y-66211928D01*
X175555518Y-66224188D01*
X175435820Y-66260498D01*
X175325506Y-66319463D01*
X175228815Y-66398815D01*
X175149463Y-66495506D01*
X175090498Y-66605820D01*
X175054188Y-66725518D01*
X175041928Y-66850000D01*
X175041928Y-68850000D01*
X175054188Y-68974482D01*
X175090498Y-69094180D01*
X175149463Y-69204494D01*
X175228815Y-69301185D01*
X175325506Y-69380537D01*
X175435820Y-69439502D01*
X175555518Y-69475812D01*
X175680000Y-69488072D01*
X177380000Y-69488072D01*
X177504482Y-69475812D01*
X177624180Y-69439502D01*
X177734494Y-69380537D01*
X177831185Y-69301185D01*
X177910537Y-69204494D01*
X177969502Y-69094180D01*
X178005812Y-68974482D01*
X178018072Y-68850000D01*
X178018072Y-66850000D01*
X178005812Y-66725518D01*
X177969502Y-66605820D01*
X177910537Y-66495506D01*
X177831185Y-66398815D01*
X177734494Y-66319463D01*
X177624180Y-66260498D01*
X177504482Y-66224188D01*
X177380000Y-66211928D01*
X177290000Y-66211928D01*
X177290000Y-65868072D01*
X177380000Y-65868072D01*
X177504482Y-65855812D01*
X177624180Y-65819502D01*
X177734494Y-65760537D01*
X177831185Y-65681185D01*
X177910537Y-65584494D01*
X177969502Y-65474180D01*
X178005812Y-65354482D01*
X178018072Y-65230000D01*
X178018072Y-63230000D01*
X178005812Y-63105518D01*
X177969502Y-62985820D01*
X177910537Y-62875506D01*
X177831185Y-62778815D01*
X177734494Y-62699463D01*
X177624180Y-62640498D01*
X177504482Y-62604188D01*
X177380000Y-62591928D01*
X175680000Y-62591928D01*
X175555518Y-62604188D01*
X175435820Y-62640498D01*
X175325506Y-62699463D01*
X175228815Y-62778815D01*
X175149463Y-62875506D01*
X175090498Y-62985820D01*
X175054188Y-63105518D01*
X175041928Y-63230000D01*
X174208072Y-63230000D01*
X174195812Y-63105518D01*
X174159502Y-62985820D01*
X174100537Y-62875506D01*
X174021185Y-62778815D01*
X173924494Y-62699463D01*
X173814180Y-62640498D01*
X173694482Y-62604188D01*
X173570000Y-62591928D01*
X171870000Y-62591928D01*
X171745518Y-62604188D01*
X171625820Y-62640498D01*
X171515506Y-62699463D01*
X171418815Y-62778815D01*
X171339463Y-62875506D01*
X171280498Y-62985820D01*
X171244188Y-63105518D01*
X171231928Y-63230000D01*
X166444801Y-63230000D01*
X170441003Y-59233799D01*
X170470001Y-59210001D01*
X170564974Y-59094276D01*
X170635546Y-58962247D01*
X170679003Y-58818986D01*
X170690000Y-58707333D01*
X170690000Y-58707323D01*
X170693676Y-58670000D01*
X170690000Y-58632677D01*
X170690000Y-57098043D01*
X170844759Y-56994637D01*
X171044637Y-56794759D01*
X171200000Y-56562241D01*
X171355363Y-56794759D01*
X171555241Y-56994637D01*
X171710000Y-57098044D01*
X171710001Y-58614962D01*
X171625820Y-58640498D01*
X171515506Y-58699463D01*
X171418815Y-58778815D01*
X171339463Y-58875506D01*
X171280498Y-58985820D01*
X171244188Y-59105518D01*
X171231928Y-59230000D01*
X171231928Y-61230000D01*
X171244188Y-61354482D01*
X171280498Y-61474180D01*
X171339463Y-61584494D01*
X171418815Y-61681185D01*
X171515506Y-61760537D01*
X171625820Y-61819502D01*
X171745518Y-61855812D01*
X171870000Y-61868072D01*
X173570000Y-61868072D01*
X173694482Y-61855812D01*
X173814180Y-61819502D01*
X173924494Y-61760537D01*
X174021185Y-61681185D01*
X174100537Y-61584494D01*
X174159502Y-61474180D01*
X174195812Y-61354482D01*
X174208072Y-61230000D01*
X174208072Y-59230000D01*
X175041928Y-59230000D01*
X175041928Y-61230000D01*
X175054188Y-61354482D01*
X175090498Y-61474180D01*
X175149463Y-61584494D01*
X175228815Y-61681185D01*
X175325506Y-61760537D01*
X175435820Y-61819502D01*
X175555518Y-61855812D01*
X175680000Y-61868072D01*
X177380000Y-61868072D01*
X177504482Y-61855812D01*
X177624180Y-61819502D01*
X177734494Y-61760537D01*
X177831185Y-61681185D01*
X177910537Y-61584494D01*
X177969502Y-61474180D01*
X178005812Y-61354482D01*
X178018072Y-61230000D01*
X178018072Y-59230000D01*
X178005812Y-59105518D01*
X177969502Y-58985820D01*
X177910537Y-58875506D01*
X177831185Y-58778815D01*
X177734494Y-58699463D01*
X177624180Y-58640498D01*
X177504482Y-58604188D01*
X177380000Y-58591928D01*
X177290000Y-58591928D01*
X177290000Y-57098043D01*
X177444759Y-56994637D01*
X177644637Y-56794759D01*
X177800000Y-56562241D01*
X177955363Y-56794759D01*
X178155241Y-56994637D01*
X178390273Y-57151680D01*
X178651426Y-57259853D01*
X178928665Y-57315000D01*
X179211335Y-57315000D01*
X179488574Y-57259853D01*
X179749727Y-57151680D01*
X179984759Y-56994637D01*
X180184637Y-56794759D01*
X180340000Y-56562241D01*
X180495363Y-56794759D01*
X180695241Y-56994637D01*
X180930273Y-57151680D01*
X181191426Y-57259853D01*
X181468665Y-57315000D01*
X181751335Y-57315000D01*
X182028574Y-57259853D01*
X182289727Y-57151680D01*
X182524759Y-56994637D01*
X182724637Y-56794759D01*
X182880000Y-56562241D01*
X183035363Y-56794759D01*
X183235241Y-56994637D01*
X183470273Y-57151680D01*
X183731426Y-57259853D01*
X184008665Y-57315000D01*
X184291335Y-57315000D01*
X184568574Y-57259853D01*
X184829727Y-57151680D01*
X185064759Y-56994637D01*
X185264637Y-56794759D01*
X185420000Y-56562241D01*
X185575363Y-56794759D01*
X185775241Y-56994637D01*
X185930001Y-57098044D01*
X185930001Y-57112668D01*
X185926324Y-57150000D01*
X185940998Y-57298985D01*
X185984454Y-57442246D01*
X186055026Y-57574276D01*
X186089300Y-57616038D01*
X186150000Y-57690001D01*
X186178998Y-57713799D01*
X189740000Y-61274802D01*
X189740001Y-73345197D01*
X188719003Y-74366196D01*
X188689999Y-74389999D01*
X188634871Y-74457174D01*
X188595026Y-74505724D01*
X188560957Y-74569463D01*
X188524454Y-74637754D01*
X188480997Y-74781015D01*
X188470000Y-74892668D01*
X188470000Y-74892678D01*
X188466324Y-74930000D01*
X188470000Y-74967323D01*
X188470001Y-78932668D01*
X188466324Y-78970000D01*
X188480998Y-79118985D01*
X188524454Y-79262246D01*
X188595026Y-79394276D01*
X188657171Y-79469999D01*
X188690000Y-79510001D01*
X188718998Y-79533799D01*
X189706200Y-80521002D01*
X189729999Y-80550001D01*
X189758997Y-80573799D01*
X189845723Y-80644974D01*
X189881928Y-80664326D01*
X189881928Y-80860000D01*
X189894188Y-80984482D01*
X189930498Y-81104180D01*
X189989463Y-81214494D01*
X190043222Y-81280000D01*
X189989463Y-81345506D01*
X189930498Y-81455820D01*
X189894188Y-81575518D01*
X189881928Y-81700000D01*
X189881928Y-81895674D01*
X189845723Y-81915026D01*
X189815947Y-81939463D01*
X189729999Y-82009999D01*
X189706201Y-82038997D01*
X188718998Y-83026201D01*
X188690000Y-83049999D01*
X188666202Y-83078997D01*
X188666201Y-83078998D01*
X188595026Y-83165724D01*
X188524454Y-83297754D01*
X188480998Y-83441015D01*
X188466324Y-83590000D01*
X188470001Y-83627332D01*
X188470000Y-92830200D01*
X185635000Y-95665201D01*
X185635000Y-95662998D01*
X185476252Y-95662998D01*
X185635000Y-95504250D01*
X185638072Y-94790000D01*
X185625812Y-94665518D01*
X185589502Y-94545820D01*
X185530537Y-94435506D01*
X185451185Y-94338815D01*
X185354494Y-94259463D01*
X185244180Y-94200498D01*
X185124482Y-94164188D01*
X185000000Y-94151928D01*
X184435750Y-94155000D01*
X184277000Y-94313750D01*
X184277000Y-95663000D01*
X184297000Y-95663000D01*
X184297000Y-95917000D01*
X184277000Y-95917000D01*
X184277000Y-95937000D01*
X184023000Y-95937000D01*
X184023000Y-95917000D01*
X181737000Y-95917000D01*
X181737000Y-97266250D01*
X181895750Y-97425000D01*
X182460000Y-97428072D01*
X182584482Y-97415812D01*
X182704180Y-97379502D01*
X182814494Y-97320537D01*
X182880000Y-97266778D01*
X182945506Y-97320537D01*
X182984056Y-97341142D01*
X182173270Y-98151928D01*
X180760000Y-98151928D01*
X180635518Y-98164188D01*
X180515820Y-98200498D01*
X180405506Y-98259463D01*
X180308815Y-98338815D01*
X180229463Y-98435506D01*
X180170498Y-98545820D01*
X180134188Y-98665518D01*
X180121928Y-98790000D01*
X180121928Y-100790000D01*
X180134188Y-100914482D01*
X180170498Y-101034180D01*
X180229463Y-101144494D01*
X180308815Y-101241185D01*
X180405506Y-101320537D01*
X180515820Y-101379502D01*
X180635518Y-101415812D01*
X180760000Y-101428072D01*
X180850001Y-101428072D01*
X180850000Y-102921956D01*
X180695241Y-103025363D01*
X180495363Y-103225241D01*
X180338320Y-103460273D01*
X180230147Y-103721426D01*
X180175000Y-103998665D01*
X180175000Y-104281335D01*
X180230147Y-104558574D01*
X180338320Y-104819727D01*
X180495363Y-105054759D01*
X180695241Y-105254637D01*
X180930273Y-105411680D01*
X181191426Y-105519853D01*
X181468665Y-105575000D01*
X181751335Y-105575000D01*
X182028574Y-105519853D01*
X182289727Y-105411680D01*
X182524759Y-105254637D01*
X182724637Y-105054759D01*
X182880000Y-104822241D01*
X183035363Y-105054759D01*
X183235241Y-105254637D01*
X183470273Y-105411680D01*
X183731426Y-105519853D01*
X184008665Y-105575000D01*
X184291335Y-105575000D01*
X184568574Y-105519853D01*
X184829727Y-105411680D01*
X185064759Y-105254637D01*
X185264637Y-105054759D01*
X185420000Y-104822241D01*
X185575363Y-105054759D01*
X185775241Y-105254637D01*
X186010273Y-105411680D01*
X186271426Y-105519853D01*
X186548665Y-105575000D01*
X186831335Y-105575000D01*
X187108574Y-105519853D01*
X187369727Y-105411680D01*
X187604759Y-105254637D01*
X187804637Y-105054759D01*
X187960000Y-104822241D01*
X188115363Y-105054759D01*
X188315241Y-105254637D01*
X188550273Y-105411680D01*
X188811426Y-105519853D01*
X189088665Y-105575000D01*
X189371335Y-105575000D01*
X189648574Y-105519853D01*
X189909727Y-105411680D01*
X190144759Y-105254637D01*
X190344637Y-105054759D01*
X190500000Y-104822241D01*
X190655363Y-105054759D01*
X190855241Y-105254637D01*
X191090273Y-105411680D01*
X191351426Y-105519853D01*
X191628665Y-105575000D01*
X191911335Y-105575000D01*
X192188574Y-105519853D01*
X192449727Y-105411680D01*
X192684759Y-105254637D01*
X192884637Y-105054759D01*
X193040000Y-104822241D01*
X193195363Y-105054759D01*
X193395241Y-105254637D01*
X193630273Y-105411680D01*
X193891426Y-105519853D01*
X194168665Y-105575000D01*
X194451335Y-105575000D01*
X194728574Y-105519853D01*
X194989727Y-105411680D01*
X195224759Y-105254637D01*
X195424637Y-105054759D01*
X195581680Y-104819727D01*
X195689853Y-104558574D01*
X195745000Y-104281335D01*
X195745000Y-103998665D01*
X195689853Y-103721426D01*
X195581680Y-103460273D01*
X195424637Y-103225241D01*
X195224759Y-103025363D01*
X194989727Y-102868320D01*
X194728574Y-102760147D01*
X194451335Y-102705000D01*
X194168665Y-102705000D01*
X193891426Y-102760147D01*
X193630273Y-102868320D01*
X193395241Y-103025363D01*
X193195363Y-103225241D01*
X193040000Y-103457759D01*
X192884637Y-103225241D01*
X192684759Y-103025363D01*
X192449727Y-102868320D01*
X192188574Y-102760147D01*
X191911335Y-102705000D01*
X191628665Y-102705000D01*
X191351426Y-102760147D01*
X191090273Y-102868320D01*
X190855241Y-103025363D01*
X190655363Y-103225241D01*
X190500000Y-103457759D01*
X190344637Y-103225241D01*
X190144759Y-103025363D01*
X189909727Y-102868320D01*
X189648574Y-102760147D01*
X189371335Y-102705000D01*
X189088665Y-102705000D01*
X188811426Y-102760147D01*
X188550273Y-102868320D01*
X188315241Y-103025363D01*
X188115363Y-103225241D01*
X187960000Y-103457759D01*
X187804637Y-103225241D01*
X187604759Y-103025363D01*
X187369727Y-102868320D01*
X187108574Y-102760147D01*
X186831335Y-102705000D01*
X186548665Y-102705000D01*
X186271426Y-102760147D01*
X186010273Y-102868320D01*
X185775241Y-103025363D01*
X185575363Y-103225241D01*
X185420000Y-103457759D01*
X185264637Y-103225241D01*
X185064759Y-103025363D01*
X184910000Y-102921957D01*
X184910000Y-101428072D01*
X185000000Y-101428072D01*
X185124482Y-101415812D01*
X185244180Y-101379502D01*
X185354494Y-101320537D01*
X185451185Y-101241185D01*
X185530537Y-101144494D01*
X185589502Y-101034180D01*
X185625812Y-100914482D01*
X185638072Y-100790000D01*
X185638072Y-99846908D01*
X185643677Y-99790000D01*
X185638072Y-99733092D01*
X185638072Y-99376729D01*
X186174929Y-98839872D01*
X194615000Y-98839872D01*
X194615000Y-99280128D01*
X194700890Y-99711925D01*
X194869369Y-100118669D01*
X195113962Y-100484729D01*
X195425271Y-100796038D01*
X195791331Y-101040631D01*
X196198075Y-101209110D01*
X196629872Y-101295000D01*
X197070128Y-101295000D01*
X197501925Y-101209110D01*
X197908669Y-101040631D01*
X198274729Y-100796038D01*
X198586038Y-100484729D01*
X198830631Y-100118669D01*
X198999110Y-99711925D01*
X199085000Y-99280128D01*
X199085000Y-98839872D01*
X198999110Y-98408075D01*
X198830631Y-98001331D01*
X198586038Y-97635271D01*
X198274729Y-97323962D01*
X197908669Y-97079369D01*
X197501925Y-96910890D01*
X197070128Y-96825000D01*
X196629872Y-96825000D01*
X196198075Y-96910890D01*
X195791331Y-97079369D01*
X195425271Y-97323962D01*
X195113962Y-97635271D01*
X194869369Y-98001331D01*
X194700890Y-98408075D01*
X194615000Y-98839872D01*
X186174929Y-98839872D01*
X192281004Y-92733798D01*
X192310001Y-92710001D01*
X192404974Y-92594276D01*
X192475546Y-92462247D01*
X192519003Y-92318986D01*
X192530000Y-92207333D01*
X192530000Y-92207324D01*
X192533676Y-92170001D01*
X192530000Y-92132678D01*
X192530000Y-91658072D01*
X193020000Y-91658072D01*
X193144482Y-91645812D01*
X193264180Y-91609502D01*
X193374494Y-91550537D01*
X193471185Y-91471185D01*
X193550537Y-91374494D01*
X193609502Y-91264180D01*
X193645812Y-91144482D01*
X193658072Y-91020000D01*
X193658072Y-89320000D01*
X193645812Y-89195518D01*
X193609502Y-89075820D01*
X193550537Y-88965506D01*
X193496778Y-88900000D01*
X193550537Y-88834494D01*
X193609502Y-88724180D01*
X193645812Y-88604482D01*
X193658072Y-88480000D01*
X193658072Y-88284326D01*
X193694276Y-88264974D01*
X193810001Y-88170001D01*
X193833804Y-88140997D01*
X196091004Y-85883798D01*
X196120001Y-85860001D01*
X196214974Y-85744276D01*
X196285546Y-85612247D01*
X196329003Y-85468986D01*
X196340000Y-85357333D01*
X196340000Y-85357324D01*
X196343676Y-85320001D01*
X196340000Y-85282678D01*
X196340000Y-74967325D01*
X196343676Y-74930000D01*
X196340000Y-74892675D01*
X196340000Y-74892667D01*
X196329003Y-74781014D01*
X196285546Y-74637753D01*
X196214974Y-74505724D01*
X196120001Y-74389999D01*
X196091003Y-74366201D01*
X192624674Y-70899872D01*
X194615000Y-70899872D01*
X194615000Y-71340128D01*
X194700890Y-71771925D01*
X194869369Y-72178669D01*
X195113962Y-72544729D01*
X195425271Y-72856038D01*
X195791331Y-73100631D01*
X196198075Y-73269110D01*
X196629872Y-73355000D01*
X197070128Y-73355000D01*
X197501925Y-73269110D01*
X197908669Y-73100631D01*
X198274729Y-72856038D01*
X198586038Y-72544729D01*
X198830631Y-72178669D01*
X198999110Y-71771925D01*
X199085000Y-71340128D01*
X199085000Y-70899872D01*
X198999110Y-70468075D01*
X198830631Y-70061331D01*
X198586038Y-69695271D01*
X198274729Y-69383962D01*
X197908669Y-69139369D01*
X197501925Y-68970890D01*
X197070128Y-68885000D01*
X196629872Y-68885000D01*
X196198075Y-68970890D01*
X195791331Y-69139369D01*
X195425271Y-69383962D01*
X195113962Y-69695271D01*
X194869369Y-70061331D01*
X194700890Y-70468075D01*
X194615000Y-70899872D01*
X192624674Y-70899872D01*
X192530000Y-70805199D01*
X192530000Y-58457322D01*
X192533676Y-58419999D01*
X192530000Y-58382676D01*
X192530000Y-58382667D01*
X192519003Y-58271014D01*
X192475546Y-58127753D01*
X192404974Y-57995724D01*
X192391811Y-57979685D01*
X192333799Y-57908996D01*
X192333795Y-57908992D01*
X192310001Y-57879999D01*
X192281008Y-57856205D01*
X191739803Y-57315000D01*
X191911335Y-57315000D01*
X192188574Y-57259853D01*
X192449727Y-57151680D01*
X192684759Y-56994637D01*
X192884637Y-56794759D01*
X193040000Y-56562241D01*
X193195363Y-56794759D01*
X193395241Y-56994637D01*
X193630273Y-57151680D01*
X193891426Y-57259853D01*
X194168665Y-57315000D01*
X194451335Y-57315000D01*
X194728574Y-57259853D01*
X194989727Y-57151680D01*
X195224759Y-56994637D01*
X195424637Y-56794759D01*
X195581680Y-56559727D01*
X195689853Y-56298574D01*
X195745000Y-56021335D01*
X195745000Y-55738665D01*
X195689853Y-55461426D01*
X195581680Y-55200273D01*
X195424637Y-54965241D01*
X195224759Y-54765363D01*
X194989727Y-54608320D01*
X194728574Y-54500147D01*
X194451335Y-54445000D01*
X194168665Y-54445000D01*
X193891426Y-54500147D01*
X193630273Y-54608320D01*
X193395241Y-54765363D01*
X193195363Y-54965241D01*
X193040000Y-55197759D01*
X192884637Y-54965241D01*
X192684759Y-54765363D01*
X192449727Y-54608320D01*
X192188574Y-54500147D01*
X191911335Y-54445000D01*
X191628665Y-54445000D01*
X191351426Y-54500147D01*
X191090273Y-54608320D01*
X190855241Y-54765363D01*
X190655363Y-54965241D01*
X190500000Y-55197759D01*
X190344637Y-54965241D01*
X190144759Y-54765363D01*
X189909727Y-54608320D01*
X189648574Y-54500147D01*
X189371335Y-54445000D01*
X189088665Y-54445000D01*
X188811426Y-54500147D01*
X188550273Y-54608320D01*
X188315241Y-54765363D01*
X188115363Y-54965241D01*
X187960000Y-55197759D01*
X187804637Y-54965241D01*
X187604759Y-54765363D01*
X187369727Y-54608320D01*
X187108574Y-54500147D01*
X186831335Y-54445000D01*
X186548665Y-54445000D01*
X186271426Y-54500147D01*
X186010273Y-54608320D01*
X185775241Y-54765363D01*
X185575363Y-54965241D01*
X185420000Y-55197759D01*
X185264637Y-54965241D01*
X185064759Y-54765363D01*
X184829727Y-54608320D01*
X184568574Y-54500147D01*
X184291335Y-54445000D01*
X184008665Y-54445000D01*
X183731426Y-54500147D01*
X183470273Y-54608320D01*
X183235241Y-54765363D01*
X183035363Y-54965241D01*
X182880000Y-55197759D01*
X182724637Y-54965241D01*
X182524759Y-54765363D01*
X182289727Y-54608320D01*
X182028574Y-54500147D01*
X181751335Y-54445000D01*
X181468665Y-54445000D01*
X181191426Y-54500147D01*
X180930273Y-54608320D01*
X180695241Y-54765363D01*
X180495363Y-54965241D01*
X180340000Y-55197759D01*
X180184637Y-54965241D01*
X179984759Y-54765363D01*
X179749727Y-54608320D01*
X179488574Y-54500147D01*
X179211335Y-54445000D01*
X178928665Y-54445000D01*
X178651426Y-54500147D01*
X178390273Y-54608320D01*
X178155241Y-54765363D01*
X177955363Y-54965241D01*
X177800000Y-55197759D01*
X177644637Y-54965241D01*
X177444759Y-54765363D01*
X177209727Y-54608320D01*
X176948574Y-54500147D01*
X176671335Y-54445000D01*
X176388665Y-54445000D01*
X176111426Y-54500147D01*
X175850273Y-54608320D01*
X175615241Y-54765363D01*
X175415363Y-54965241D01*
X175258320Y-55200273D01*
X175150147Y-55461426D01*
X175095000Y-55738665D01*
X175095000Y-56021335D01*
X175150147Y-56298574D01*
X175258320Y-56559727D01*
X175415363Y-56794759D01*
X175615241Y-56994637D01*
X175770000Y-57098044D01*
X175770001Y-58591928D01*
X175680000Y-58591928D01*
X175555518Y-58604188D01*
X175435820Y-58640498D01*
X175325506Y-58699463D01*
X175228815Y-58778815D01*
X175149463Y-58875506D01*
X175090498Y-58985820D01*
X175054188Y-59105518D01*
X175041928Y-59230000D01*
X174208072Y-59230000D01*
X174195812Y-59105518D01*
X174159502Y-58985820D01*
X174100537Y-58875506D01*
X174021185Y-58778815D01*
X173924494Y-58699463D01*
X173814180Y-58640498D01*
X173694482Y-58604188D01*
X173570000Y-58591928D01*
X173230000Y-58591928D01*
X173230000Y-57098043D01*
X173384759Y-56994637D01*
X173584637Y-56794759D01*
X173741680Y-56559727D01*
X173849853Y-56298574D01*
X173905000Y-56021335D01*
X173905000Y-55738665D01*
X173849853Y-55461426D01*
X173741680Y-55200273D01*
X173584637Y-54965241D01*
X173384759Y-54765363D01*
X173149727Y-54608320D01*
X172888574Y-54500147D01*
X172611335Y-54445000D01*
X172328665Y-54445000D01*
X172051426Y-54500147D01*
X171790273Y-54608320D01*
X171555241Y-54765363D01*
X171355363Y-54965241D01*
X171200000Y-55197759D01*
X171044637Y-54965241D01*
X170844759Y-54765363D01*
X170609727Y-54608320D01*
X170348574Y-54500147D01*
X170071335Y-54445000D01*
X169788665Y-54445000D01*
X169511426Y-54500147D01*
X169250273Y-54608320D01*
X169015241Y-54765363D01*
X168815363Y-54965241D01*
X168660000Y-55197759D01*
X168504637Y-54965241D01*
X168304759Y-54765363D01*
X168069727Y-54608320D01*
X167808574Y-54500147D01*
X167531335Y-54445000D01*
X167248665Y-54445000D01*
X166971426Y-54500147D01*
X166710273Y-54608320D01*
X166475241Y-54765363D01*
X166275363Y-54965241D01*
X166120000Y-55197759D01*
X165964637Y-54965241D01*
X165764759Y-54765363D01*
X165529727Y-54608320D01*
X165268574Y-54500147D01*
X164991335Y-54445000D01*
X164708665Y-54445000D01*
X164431426Y-54500147D01*
X164170273Y-54608320D01*
X163935241Y-54765363D01*
X163735363Y-54965241D01*
X163580000Y-55197759D01*
X163424637Y-54965241D01*
X163224759Y-54765363D01*
X162989727Y-54608320D01*
X162728574Y-54500147D01*
X162451335Y-54445000D01*
X162168665Y-54445000D01*
X161891426Y-54500147D01*
X161630273Y-54608320D01*
X161395241Y-54765363D01*
X161195363Y-54965241D01*
X161040000Y-55197759D01*
X160884637Y-54965241D01*
X160684759Y-54765363D01*
X160449727Y-54608320D01*
X160188574Y-54500147D01*
X159911335Y-54445000D01*
X159628665Y-54445000D01*
X159351426Y-54500147D01*
X159090273Y-54608320D01*
X158855241Y-54765363D01*
X158655363Y-54965241D01*
X158500000Y-55197759D01*
X158344637Y-54965241D01*
X158144759Y-54765363D01*
X157909727Y-54608320D01*
X157648574Y-54500147D01*
X157371335Y-54445000D01*
X157088665Y-54445000D01*
X156811426Y-54500147D01*
X156550273Y-54608320D01*
X156315241Y-54765363D01*
X156115363Y-54965241D01*
X155960000Y-55197759D01*
X155804637Y-54965241D01*
X155604759Y-54765363D01*
X155369727Y-54608320D01*
X155108574Y-54500147D01*
X154831335Y-54445000D01*
X154548665Y-54445000D01*
X154271426Y-54500147D01*
X154010273Y-54608320D01*
X153775241Y-54765363D01*
X153575363Y-54965241D01*
X153420000Y-55197759D01*
X153264637Y-54965241D01*
X153064759Y-54765363D01*
X152829727Y-54608320D01*
X152568574Y-54500147D01*
X152291335Y-54445000D01*
X152008665Y-54445000D01*
X151731426Y-54500147D01*
X151470273Y-54608320D01*
X151235241Y-54765363D01*
X151035363Y-54965241D01*
X150880000Y-55197759D01*
X150724637Y-54965241D01*
X150524759Y-54765363D01*
X150289727Y-54608320D01*
X150028574Y-54500147D01*
X149751335Y-54445000D01*
X149468665Y-54445000D01*
X149191426Y-54500147D01*
X148930273Y-54608320D01*
X148695241Y-54765363D01*
X148495363Y-54965241D01*
X148338320Y-55200273D01*
X148240537Y-55436342D01*
X148199110Y-55228075D01*
X148030631Y-54821331D01*
X147786038Y-54455271D01*
X147474729Y-54143962D01*
X147108669Y-53899369D01*
X146701925Y-53730890D01*
X146270128Y-53645000D01*
X145829872Y-53645000D01*
X145398075Y-53730890D01*
X144991331Y-53899369D01*
X144625271Y-54143962D01*
X144313962Y-54455271D01*
X144069369Y-54821331D01*
X143900890Y-55228075D01*
X143815000Y-55659872D01*
X130937000Y-55659872D01*
X130937000Y-53467000D01*
X195527394Y-53467000D01*
X196723000Y-54662606D01*
%TA.AperFunction,Conductor*%
D19*
G36*
X196723000Y-54662606D02*
G01*
X196723000Y-66040000D01*
X196725440Y-66064776D01*
X196732667Y-66088601D01*
X196744403Y-66110557D01*
X196760197Y-66129803D01*
X199263000Y-68632606D01*
X199263000Y-101547394D01*
X196760197Y-104050197D01*
X196744403Y-104069443D01*
X196732667Y-104091399D01*
X196725440Y-104115224D01*
X196723000Y-104140000D01*
X196723000Y-106553000D01*
X130937000Y-106553000D01*
X130937000Y-103919872D01*
X142545000Y-103919872D01*
X142545000Y-104360128D01*
X142630890Y-104791925D01*
X142799369Y-105198669D01*
X143043962Y-105564729D01*
X143355271Y-105876038D01*
X143721331Y-106120631D01*
X144128075Y-106289110D01*
X144559872Y-106375000D01*
X145000128Y-106375000D01*
X145431925Y-106289110D01*
X145838669Y-106120631D01*
X146204729Y-105876038D01*
X146516038Y-105564729D01*
X146760631Y-105198669D01*
X146929110Y-104791925D01*
X147015000Y-104360128D01*
X147015000Y-103919872D01*
X146929110Y-103488075D01*
X146867776Y-103340000D01*
X157311928Y-103340000D01*
X157311928Y-104940000D01*
X157324188Y-105064482D01*
X157360498Y-105184180D01*
X157419463Y-105294494D01*
X157498815Y-105391185D01*
X157595506Y-105470537D01*
X157705820Y-105529502D01*
X157825518Y-105565812D01*
X157950000Y-105578072D01*
X159550000Y-105578072D01*
X159674482Y-105565812D01*
X159794180Y-105529502D01*
X159904494Y-105470537D01*
X160001185Y-105391185D01*
X160080537Y-105294494D01*
X160139502Y-105184180D01*
X160175812Y-105064482D01*
X160176643Y-105056039D01*
X160375241Y-105254637D01*
X160610273Y-105411680D01*
X160871426Y-105519853D01*
X161148665Y-105575000D01*
X161431335Y-105575000D01*
X161708574Y-105519853D01*
X161969727Y-105411680D01*
X162204759Y-105254637D01*
X162404637Y-105054759D01*
X162560000Y-104822241D01*
X162715363Y-105054759D01*
X162915241Y-105254637D01*
X163150273Y-105411680D01*
X163411426Y-105519853D01*
X163688665Y-105575000D01*
X163971335Y-105575000D01*
X164248574Y-105519853D01*
X164509727Y-105411680D01*
X164744759Y-105254637D01*
X164944637Y-105054759D01*
X165100000Y-104822241D01*
X165255363Y-105054759D01*
X165455241Y-105254637D01*
X165690273Y-105411680D01*
X165951426Y-105519853D01*
X166228665Y-105575000D01*
X166511335Y-105575000D01*
X166788574Y-105519853D01*
X167049727Y-105411680D01*
X167284759Y-105254637D01*
X167484637Y-105054759D01*
X167640000Y-104822241D01*
X167795363Y-105054759D01*
X167995241Y-105254637D01*
X168230273Y-105411680D01*
X168491426Y-105519853D01*
X168768665Y-105575000D01*
X169051335Y-105575000D01*
X169328574Y-105519853D01*
X169589727Y-105411680D01*
X169824759Y-105254637D01*
X170024637Y-105054759D01*
X170180000Y-104822241D01*
X170335363Y-105054759D01*
X170535241Y-105254637D01*
X170770273Y-105411680D01*
X171031426Y-105519853D01*
X171308665Y-105575000D01*
X171591335Y-105575000D01*
X171868574Y-105519853D01*
X172129727Y-105411680D01*
X172364759Y-105254637D01*
X172564637Y-105054759D01*
X172721680Y-104819727D01*
X172726067Y-104809135D01*
X172837615Y-104995131D01*
X173026586Y-105203519D01*
X173252580Y-105371037D01*
X173506913Y-105491246D01*
X173640961Y-105531904D01*
X173863000Y-105409915D01*
X173863000Y-104267000D01*
X173843000Y-104267000D01*
X173843000Y-104013000D01*
X173863000Y-104013000D01*
X173863000Y-102870085D01*
X173640961Y-102748096D01*
X173506913Y-102788754D01*
X173252580Y-102908963D01*
X173026586Y-103076481D01*
X172837615Y-103284869D01*
X172726067Y-103470865D01*
X172721680Y-103460273D01*
X172564637Y-103225241D01*
X172364759Y-103025363D01*
X172129727Y-102868320D01*
X171868574Y-102760147D01*
X171591335Y-102705000D01*
X171308665Y-102705000D01*
X171031426Y-102760147D01*
X170770273Y-102868320D01*
X170535241Y-103025363D01*
X170335363Y-103225241D01*
X170180000Y-103457759D01*
X170024637Y-103225241D01*
X169824759Y-103025363D01*
X169589727Y-102868320D01*
X169328574Y-102760147D01*
X169051335Y-102705000D01*
X168768665Y-102705000D01*
X168491426Y-102760147D01*
X168230273Y-102868320D01*
X167995241Y-103025363D01*
X167795363Y-103225241D01*
X167640000Y-103457759D01*
X167484637Y-103225241D01*
X167284759Y-103025363D01*
X167049727Y-102868320D01*
X166788574Y-102760147D01*
X166511335Y-102705000D01*
X166228665Y-102705000D01*
X165951426Y-102760147D01*
X165690273Y-102868320D01*
X165455241Y-103025363D01*
X165255363Y-103225241D01*
X165100000Y-103457759D01*
X164944637Y-103225241D01*
X164744759Y-103025363D01*
X164509727Y-102868320D01*
X164248574Y-102760147D01*
X163971335Y-102705000D01*
X163688665Y-102705000D01*
X163411426Y-102760147D01*
X163150273Y-102868320D01*
X162915241Y-103025363D01*
X162715363Y-103225241D01*
X162560000Y-103457759D01*
X162404637Y-103225241D01*
X162204759Y-103025363D01*
X161969727Y-102868320D01*
X161708574Y-102760147D01*
X161431335Y-102705000D01*
X161148665Y-102705000D01*
X160871426Y-102760147D01*
X160610273Y-102868320D01*
X160375241Y-103025363D01*
X160176643Y-103223961D01*
X160175812Y-103215518D01*
X160139502Y-103095820D01*
X160080537Y-102985506D01*
X160001185Y-102888815D01*
X159904494Y-102809463D01*
X159794180Y-102750498D01*
X159674482Y-102714188D01*
X159550000Y-102701928D01*
X157950000Y-102701928D01*
X157825518Y-102714188D01*
X157705820Y-102750498D01*
X157595506Y-102809463D01*
X157498815Y-102888815D01*
X157419463Y-102985506D01*
X157360498Y-103095820D01*
X157324188Y-103215518D01*
X157311928Y-103340000D01*
X146867776Y-103340000D01*
X146760631Y-103081331D01*
X146516038Y-102715271D01*
X146204729Y-102403962D01*
X145838669Y-102159369D01*
X145431925Y-101990890D01*
X145000128Y-101905000D01*
X144559872Y-101905000D01*
X144128075Y-101990890D01*
X143721331Y-102159369D01*
X143355271Y-102403962D01*
X143043962Y-102715271D01*
X142799369Y-103081331D01*
X142630890Y-103488075D01*
X142545000Y-103919872D01*
X130937000Y-103919872D01*
X130937000Y-100790000D01*
X172501928Y-100790000D01*
X172514188Y-100914482D01*
X172550498Y-101034180D01*
X172609463Y-101144494D01*
X172688815Y-101241185D01*
X172785506Y-101320537D01*
X172895820Y-101379502D01*
X173015518Y-101415812D01*
X173140000Y-101428072D01*
X173704250Y-101425000D01*
X173863000Y-101266250D01*
X173863000Y-99917000D01*
X174117000Y-99917000D01*
X174117000Y-101266250D01*
X174275750Y-101425000D01*
X174840000Y-101428072D01*
X174964482Y-101415812D01*
X175084180Y-101379502D01*
X175194494Y-101320537D01*
X175291185Y-101241185D01*
X175370537Y-101144494D01*
X175429502Y-101034180D01*
X175465812Y-100914482D01*
X175478072Y-100790000D01*
X175475000Y-100075750D01*
X175316250Y-99917000D01*
X174117000Y-99917000D01*
X173863000Y-99917000D01*
X172663750Y-99917000D01*
X172505000Y-100075750D01*
X172501928Y-100790000D01*
X130937000Y-100790000D01*
X130937000Y-98790000D01*
X172501928Y-98790000D01*
X172505000Y-99504250D01*
X172663750Y-99663000D01*
X173863000Y-99663000D01*
X173863000Y-98313750D01*
X174117000Y-98313750D01*
X174117000Y-99663000D01*
X175316250Y-99663000D01*
X175475000Y-99504250D01*
X175478072Y-98790000D01*
X175465812Y-98665518D01*
X175429502Y-98545820D01*
X175370537Y-98435506D01*
X175291185Y-98338815D01*
X175194494Y-98259463D01*
X175084180Y-98200498D01*
X174964482Y-98164188D01*
X174840000Y-98151928D01*
X174275750Y-98155000D01*
X174117000Y-98313750D01*
X173863000Y-98313750D01*
X173704250Y-98155000D01*
X173140000Y-98151928D01*
X173015518Y-98164188D01*
X172895820Y-98200498D01*
X172785506Y-98259463D01*
X172688815Y-98338815D01*
X172609463Y-98435506D01*
X172550498Y-98545820D01*
X172514188Y-98665518D01*
X172501928Y-98790000D01*
X130937000Y-98790000D01*
X130937000Y-55659872D01*
X143815000Y-55659872D01*
X143815000Y-56100128D01*
X143900890Y-56531925D01*
X144069369Y-56938669D01*
X144313962Y-57304729D01*
X144625271Y-57616038D01*
X144991331Y-57860631D01*
X145398075Y-58029110D01*
X145829872Y-58115000D01*
X146270128Y-58115000D01*
X146701925Y-58029110D01*
X147108669Y-57860631D01*
X147474729Y-57616038D01*
X147786038Y-57304729D01*
X148030631Y-56938669D01*
X148199110Y-56531925D01*
X148240537Y-56323658D01*
X148338320Y-56559727D01*
X148495363Y-56794759D01*
X148695241Y-56994637D01*
X148930273Y-57151680D01*
X149191426Y-57259853D01*
X149468665Y-57315000D01*
X149751335Y-57315000D01*
X150028574Y-57259853D01*
X150289727Y-57151680D01*
X150524759Y-56994637D01*
X150724637Y-56794759D01*
X150880000Y-56562241D01*
X151035363Y-56794759D01*
X151235241Y-56994637D01*
X151470273Y-57151680D01*
X151731426Y-57259853D01*
X152008665Y-57315000D01*
X152291335Y-57315000D01*
X152568574Y-57259853D01*
X152829727Y-57151680D01*
X153064759Y-56994637D01*
X153264637Y-56794759D01*
X153420000Y-56562241D01*
X153575363Y-56794759D01*
X153775241Y-56994637D01*
X154010273Y-57151680D01*
X154271426Y-57259853D01*
X154548665Y-57315000D01*
X154831335Y-57315000D01*
X155108574Y-57259853D01*
X155369727Y-57151680D01*
X155604759Y-56994637D01*
X155804637Y-56794759D01*
X155960000Y-56562241D01*
X156115363Y-56794759D01*
X156315241Y-56994637D01*
X156550273Y-57151680D01*
X156811426Y-57259853D01*
X157088665Y-57315000D01*
X157371335Y-57315000D01*
X157648574Y-57259853D01*
X157909727Y-57151680D01*
X158144759Y-56994637D01*
X158344637Y-56794759D01*
X158500000Y-56562241D01*
X158655363Y-56794759D01*
X158855241Y-56994637D01*
X159090273Y-57151680D01*
X159351426Y-57259853D01*
X159628665Y-57315000D01*
X159911335Y-57315000D01*
X160188574Y-57259853D01*
X160449727Y-57151680D01*
X160684759Y-56994637D01*
X160884637Y-56794759D01*
X161040000Y-56562241D01*
X161195363Y-56794759D01*
X161395241Y-56994637D01*
X161630273Y-57151680D01*
X161891426Y-57259853D01*
X162168665Y-57315000D01*
X162451335Y-57315000D01*
X162728574Y-57259853D01*
X162989727Y-57151680D01*
X163224759Y-56994637D01*
X163424637Y-56794759D01*
X163580000Y-56562241D01*
X163735363Y-56794759D01*
X163935241Y-56994637D01*
X164170273Y-57151680D01*
X164431426Y-57259853D01*
X164708665Y-57315000D01*
X164991335Y-57315000D01*
X165268574Y-57259853D01*
X165529727Y-57151680D01*
X165764759Y-56994637D01*
X165964637Y-56794759D01*
X166120000Y-56562241D01*
X166275363Y-56794759D01*
X166475241Y-56994637D01*
X166710273Y-57151680D01*
X166971426Y-57259853D01*
X167248665Y-57315000D01*
X167531335Y-57315000D01*
X167808574Y-57259853D01*
X168069727Y-57151680D01*
X168304759Y-56994637D01*
X168504637Y-56794759D01*
X168660000Y-56562241D01*
X168815363Y-56794759D01*
X169015241Y-56994637D01*
X169170000Y-57098044D01*
X169170001Y-58355197D01*
X164859003Y-62666196D01*
X164829999Y-62689999D01*
X164774871Y-62757174D01*
X164735026Y-62805724D01*
X164664455Y-62937753D01*
X164664454Y-62937754D01*
X164620997Y-63081015D01*
X164610000Y-63192668D01*
X164610000Y-63192678D01*
X164606324Y-63230000D01*
X164610000Y-63267322D01*
X164610001Y-81888954D01*
X164515506Y-81939463D01*
X164418815Y-82018815D01*
X164339463Y-82115506D01*
X164280498Y-82225820D01*
X164244188Y-82345518D01*
X164231928Y-82470000D01*
X164231928Y-83148268D01*
X162048998Y-85331199D01*
X162020000Y-85354997D01*
X161996202Y-85383995D01*
X161996201Y-85383996D01*
X161925026Y-85470722D01*
X161854454Y-85602752D01*
X161841260Y-85646250D01*
X161811525Y-85744277D01*
X161810998Y-85746013D01*
X161796324Y-85894998D01*
X161800001Y-85932330D01*
X161800000Y-93942678D01*
X161796324Y-93980000D01*
X161800000Y-94017322D01*
X161800000Y-94017332D01*
X161810997Y-94128985D01*
X161821676Y-94164188D01*
X161854454Y-94272246D01*
X161925026Y-94404276D01*
X161950656Y-94435506D01*
X162019999Y-94520001D01*
X162049003Y-94543804D01*
X163806201Y-96301003D01*
X163829999Y-96330001D01*
X163858997Y-96353799D01*
X163945724Y-96424974D01*
X164077753Y-96495546D01*
X164221014Y-96539003D01*
X164370000Y-96553677D01*
X164407333Y-96550000D01*
X172501928Y-96550000D01*
X172501928Y-96790000D01*
X172514188Y-96914482D01*
X172550498Y-97034180D01*
X172609463Y-97144494D01*
X172688815Y-97241185D01*
X172785506Y-97320537D01*
X172895820Y-97379502D01*
X173015518Y-97415812D01*
X173140000Y-97428072D01*
X174840000Y-97428072D01*
X174964482Y-97415812D01*
X175084180Y-97379502D01*
X175194494Y-97320537D01*
X175291185Y-97241185D01*
X175370537Y-97144494D01*
X175429502Y-97034180D01*
X175465812Y-96914482D01*
X175478072Y-96790000D01*
X175478072Y-94790000D01*
X175465812Y-94665518D01*
X175429502Y-94545820D01*
X175370537Y-94435506D01*
X175291185Y-94338815D01*
X175194494Y-94259463D01*
X175084180Y-94200498D01*
X174964482Y-94164188D01*
X174840000Y-94151928D01*
X173140000Y-94151928D01*
X173015518Y-94164188D01*
X172895820Y-94200498D01*
X172785506Y-94259463D01*
X172688815Y-94338815D01*
X172609463Y-94435506D01*
X172550498Y-94545820D01*
X172514188Y-94665518D01*
X172501928Y-94790000D01*
X172501928Y-95030000D01*
X164684802Y-95030000D01*
X163320000Y-93665199D01*
X163320000Y-86209799D01*
X164243393Y-85286407D01*
X164244188Y-85294482D01*
X164280498Y-85414180D01*
X164339463Y-85524494D01*
X164418815Y-85621185D01*
X164515506Y-85700537D01*
X164625820Y-85759502D01*
X164745518Y-85795812D01*
X164870000Y-85808072D01*
X165084250Y-85805000D01*
X165243000Y-85646250D01*
X165243000Y-84797000D01*
X165223000Y-84797000D01*
X165223000Y-84543000D01*
X165243000Y-84543000D01*
X165243000Y-84523000D01*
X165497000Y-84523000D01*
X165497000Y-84543000D01*
X165517000Y-84543000D01*
X165517000Y-84797000D01*
X165497000Y-84797000D01*
X165497000Y-85646250D01*
X165655750Y-85805000D01*
X165870000Y-85808072D01*
X165994482Y-85795812D01*
X166114180Y-85759502D01*
X166224494Y-85700537D01*
X166321185Y-85621185D01*
X166400537Y-85524494D01*
X166459502Y-85414180D01*
X166495812Y-85294482D01*
X166508072Y-85170000D01*
X166505000Y-84955750D01*
X166346252Y-84797002D01*
X166450273Y-84797002D01*
X166515506Y-84850537D01*
X166625820Y-84909502D01*
X166745518Y-84945812D01*
X166870000Y-84958072D01*
X167870000Y-84958072D01*
X167994482Y-84945812D01*
X168114180Y-84909502D01*
X168224494Y-84850537D01*
X168321185Y-84771185D01*
X168400537Y-84674494D01*
X168451046Y-84580000D01*
X172405199Y-84580000D01*
X173617286Y-85792088D01*
X173591675Y-85853919D01*
X173525000Y-86189117D01*
X173525000Y-86530883D01*
X173591675Y-86866081D01*
X173722463Y-87181831D01*
X173912337Y-87465998D01*
X174154002Y-87707663D01*
X174438169Y-87897537D01*
X174753919Y-88028325D01*
X175089117Y-88095000D01*
X175430883Y-88095000D01*
X175766081Y-88028325D01*
X176081831Y-87897537D01*
X176365998Y-87707663D01*
X176607663Y-87465998D01*
X176797537Y-87181831D01*
X176928325Y-86866081D01*
X176995000Y-86530883D01*
X176995000Y-86189117D01*
X176928325Y-85853919D01*
X176902714Y-85792088D01*
X178754247Y-83940555D01*
X178845820Y-83989502D01*
X178965518Y-84025812D01*
X179090000Y-84038072D01*
X181590000Y-84038072D01*
X181714482Y-84025812D01*
X181834180Y-83989502D01*
X181944494Y-83930537D01*
X182041185Y-83851185D01*
X182120000Y-83755148D01*
X182120000Y-84775198D01*
X176018998Y-90876201D01*
X175990000Y-90899999D01*
X175966202Y-90928997D01*
X175966201Y-90928998D01*
X175895026Y-91015724D01*
X175824454Y-91147754D01*
X175780998Y-91291015D01*
X175766324Y-91440000D01*
X175770001Y-91477332D01*
X175770000Y-102921957D01*
X175615241Y-103025363D01*
X175415363Y-103225241D01*
X175258320Y-103460273D01*
X175253933Y-103470865D01*
X175142385Y-103284869D01*
X174953414Y-103076481D01*
X174727420Y-102908963D01*
X174473087Y-102788754D01*
X174339039Y-102748096D01*
X174117000Y-102870085D01*
X174117000Y-104013000D01*
X174137000Y-104013000D01*
X174137000Y-104267000D01*
X174117000Y-104267000D01*
X174117000Y-105409915D01*
X174339039Y-105531904D01*
X174473087Y-105491246D01*
X174727420Y-105371037D01*
X174953414Y-105203519D01*
X175142385Y-104995131D01*
X175253933Y-104809135D01*
X175258320Y-104819727D01*
X175415363Y-105054759D01*
X175615241Y-105254637D01*
X175850273Y-105411680D01*
X176111426Y-105519853D01*
X176388665Y-105575000D01*
X176671335Y-105575000D01*
X176948574Y-105519853D01*
X177209727Y-105411680D01*
X177444759Y-105254637D01*
X177644637Y-105054759D01*
X177801680Y-104819727D01*
X177909853Y-104558574D01*
X177965000Y-104281335D01*
X177965000Y-103998665D01*
X177909853Y-103721426D01*
X177801680Y-103460273D01*
X177644637Y-103225241D01*
X177444759Y-103025363D01*
X177290000Y-102921957D01*
X177290000Y-96790000D01*
X180121928Y-96790000D01*
X180134188Y-96914482D01*
X180170498Y-97034180D01*
X180229463Y-97144494D01*
X180308815Y-97241185D01*
X180405506Y-97320537D01*
X180515820Y-97379502D01*
X180635518Y-97415812D01*
X180760000Y-97428072D01*
X181324250Y-97425000D01*
X181483000Y-97266250D01*
X181483000Y-95917000D01*
X180283750Y-95917000D01*
X180125000Y-96075750D01*
X180121928Y-96790000D01*
X177290000Y-96790000D01*
X177290000Y-94790000D01*
X180121928Y-94790000D01*
X180125000Y-95504250D01*
X180283750Y-95663000D01*
X181483000Y-95663000D01*
X181483000Y-94313750D01*
X181737000Y-94313750D01*
X181737000Y-95663000D01*
X184023000Y-95663000D01*
X184023000Y-94313750D01*
X183864250Y-94155000D01*
X183300000Y-94151928D01*
X183175518Y-94164188D01*
X183055820Y-94200498D01*
X182945506Y-94259463D01*
X182880000Y-94313222D01*
X182814494Y-94259463D01*
X182704180Y-94200498D01*
X182584482Y-94164188D01*
X182460000Y-94151928D01*
X181895750Y-94155000D01*
X181737000Y-94313750D01*
X181483000Y-94313750D01*
X181324250Y-94155000D01*
X180760000Y-94151928D01*
X180635518Y-94164188D01*
X180515820Y-94200498D01*
X180405506Y-94259463D01*
X180308815Y-94338815D01*
X180229463Y-94435506D01*
X180170498Y-94545820D01*
X180134188Y-94665518D01*
X180121928Y-94790000D01*
X177290000Y-94790000D01*
X177290000Y-91754801D01*
X183391004Y-85653798D01*
X183420001Y-85630001D01*
X183495366Y-85538169D01*
X183514974Y-85514277D01*
X183585546Y-85382247D01*
X183593812Y-85354997D01*
X183629003Y-85238986D01*
X183640000Y-85127333D01*
X183640000Y-85127324D01*
X183643676Y-85090001D01*
X183640000Y-85052678D01*
X183640000Y-81087322D01*
X183643676Y-81049999D01*
X183640000Y-81012676D01*
X183640000Y-81012667D01*
X183629003Y-80901014D01*
X183585546Y-80757753D01*
X183562986Y-80715546D01*
X183514974Y-80625723D01*
X183443799Y-80538997D01*
X183420001Y-80509999D01*
X183391003Y-80486201D01*
X182403804Y-79499002D01*
X182380001Y-79469999D01*
X182264276Y-79375026D01*
X182228072Y-79355674D01*
X182228072Y-79160000D01*
X182215812Y-79035518D01*
X182179502Y-78915820D01*
X182120537Y-78805506D01*
X182041185Y-78708815D01*
X181944494Y-78629463D01*
X181834180Y-78570498D01*
X181714482Y-78534188D01*
X181590000Y-78521928D01*
X179926730Y-78521928D01*
X177093804Y-75689003D01*
X177070001Y-75659999D01*
X176998072Y-75600968D01*
X176998072Y-75100000D01*
X176985812Y-74975518D01*
X176949502Y-74855820D01*
X176890537Y-74745506D01*
X176811185Y-74648815D01*
X176714494Y-74569463D01*
X176604180Y-74510498D01*
X176484482Y-74474188D01*
X176360000Y-74461928D01*
X174160000Y-74461928D01*
X174035518Y-74474188D01*
X173915820Y-74510498D01*
X173805506Y-74569463D01*
X173708815Y-74648815D01*
X173629463Y-74745506D01*
X173570498Y-74855820D01*
X173534188Y-74975518D01*
X173521928Y-75100000D01*
X173521928Y-77300000D01*
X173534188Y-77424482D01*
X173570498Y-77544180D01*
X173629463Y-77654494D01*
X173708815Y-77751185D01*
X173805506Y-77830537D01*
X173915820Y-77889502D01*
X174035518Y-77925812D01*
X174160000Y-77938072D01*
X176360000Y-77938072D01*
X176484482Y-77925812D01*
X176604180Y-77889502D01*
X176714494Y-77830537D01*
X176811185Y-77751185D01*
X176890537Y-77654494D01*
X176897210Y-77642011D01*
X178451928Y-79196730D01*
X178451928Y-80860000D01*
X178464188Y-80984482D01*
X178500498Y-81104180D01*
X178559463Y-81214494D01*
X178613222Y-81280000D01*
X178559463Y-81345506D01*
X178500498Y-81455820D01*
X178464188Y-81575518D01*
X178451928Y-81700000D01*
X178451928Y-82093270D01*
X175827912Y-84717286D01*
X175766081Y-84691675D01*
X175430883Y-84625000D01*
X175089117Y-84625000D01*
X174753919Y-84691675D01*
X174692088Y-84717286D01*
X173283804Y-83309003D01*
X173260001Y-83279999D01*
X173144276Y-83185026D01*
X173012247Y-83114454D01*
X172868986Y-83070997D01*
X172757333Y-83060000D01*
X172757322Y-83060000D01*
X172720000Y-83056324D01*
X172682678Y-83060000D01*
X168451046Y-83060000D01*
X168400537Y-82965506D01*
X168321185Y-82868815D01*
X168224494Y-82789463D01*
X168114180Y-82730498D01*
X167994482Y-82694188D01*
X167870000Y-82681928D01*
X166870000Y-82681928D01*
X166745518Y-82694188D01*
X166625820Y-82730498D01*
X166515506Y-82789463D01*
X166508072Y-82795564D01*
X166508072Y-82470000D01*
X166495812Y-82345518D01*
X166459502Y-82225820D01*
X166400537Y-82115506D01*
X166321185Y-82018815D01*
X166224494Y-81939463D01*
X166130000Y-81888954D01*
X166130000Y-72850000D01*
X171231928Y-72850000D01*
X171244188Y-72974482D01*
X171280498Y-73094180D01*
X171339463Y-73204494D01*
X171418815Y-73301185D01*
X171515506Y-73380537D01*
X171625820Y-73439502D01*
X171745518Y-73475812D01*
X171870000Y-73488072D01*
X172434250Y-73485000D01*
X172593000Y-73326250D01*
X172593000Y-71977000D01*
X172847000Y-71977000D01*
X172847000Y-73326250D01*
X173005750Y-73485000D01*
X173570000Y-73488072D01*
X173694482Y-73475812D01*
X173814180Y-73439502D01*
X173924494Y-73380537D01*
X174021185Y-73301185D01*
X174100537Y-73204494D01*
X174159502Y-73094180D01*
X174195812Y-72974482D01*
X174208072Y-72850000D01*
X175041928Y-72850000D01*
X175054188Y-72974482D01*
X175090498Y-73094180D01*
X175149463Y-73204494D01*
X175228815Y-73301185D01*
X175325506Y-73380537D01*
X175435820Y-73439502D01*
X175555518Y-73475812D01*
X175680000Y-73488072D01*
X176244250Y-73485000D01*
X176403000Y-73326250D01*
X176403000Y-71977000D01*
X176657000Y-71977000D01*
X176657000Y-73326250D01*
X176815750Y-73485000D01*
X177380000Y-73488072D01*
X177504482Y-73475812D01*
X177624180Y-73439502D01*
X177734494Y-73380537D01*
X177831185Y-73301185D01*
X177910537Y-73204494D01*
X177969502Y-73094180D01*
X178005812Y-72974482D01*
X178018072Y-72850000D01*
X178015000Y-72135750D01*
X177856250Y-71977000D01*
X176657000Y-71977000D01*
X176403000Y-71977000D01*
X175203750Y-71977000D01*
X175045000Y-72135750D01*
X175041928Y-72850000D01*
X174208072Y-72850000D01*
X174205000Y-72135750D01*
X174046250Y-71977000D01*
X172847000Y-71977000D01*
X172593000Y-71977000D01*
X171393750Y-71977000D01*
X171235000Y-72135750D01*
X171231928Y-72850000D01*
X166130000Y-72850000D01*
X166130000Y-70850000D01*
X171231928Y-70850000D01*
X171235000Y-71564250D01*
X171393750Y-71723000D01*
X172593000Y-71723000D01*
X172593000Y-70373750D01*
X172847000Y-70373750D01*
X172847000Y-71723000D01*
X174046250Y-71723000D01*
X174205000Y-71564250D01*
X174208072Y-70850000D01*
X175041928Y-70850000D01*
X175045000Y-71564250D01*
X175203750Y-71723000D01*
X176403000Y-71723000D01*
X176403000Y-70373750D01*
X176657000Y-70373750D01*
X176657000Y-71723000D01*
X177856250Y-71723000D01*
X178015000Y-71564250D01*
X178018072Y-70850000D01*
X178005812Y-70725518D01*
X177969502Y-70605820D01*
X177910537Y-70495506D01*
X177831185Y-70398815D01*
X177734494Y-70319463D01*
X177624180Y-70260498D01*
X177504482Y-70224188D01*
X177380000Y-70211928D01*
X176815750Y-70215000D01*
X176657000Y-70373750D01*
X176403000Y-70373750D01*
X176244250Y-70215000D01*
X175680000Y-70211928D01*
X175555518Y-70224188D01*
X175435820Y-70260498D01*
X175325506Y-70319463D01*
X175228815Y-70398815D01*
X175149463Y-70495506D01*
X175090498Y-70605820D01*
X175054188Y-70725518D01*
X175041928Y-70850000D01*
X174208072Y-70850000D01*
X174195812Y-70725518D01*
X174159502Y-70605820D01*
X174100537Y-70495506D01*
X174021185Y-70398815D01*
X173924494Y-70319463D01*
X173814180Y-70260498D01*
X173694482Y-70224188D01*
X173570000Y-70211928D01*
X173005750Y-70215000D01*
X172847000Y-70373750D01*
X172593000Y-70373750D01*
X172434250Y-70215000D01*
X171870000Y-70211928D01*
X171745518Y-70224188D01*
X171625820Y-70260498D01*
X171515506Y-70319463D01*
X171418815Y-70398815D01*
X171339463Y-70495506D01*
X171280498Y-70605820D01*
X171244188Y-70725518D01*
X171231928Y-70850000D01*
X166130000Y-70850000D01*
X166130000Y-63544801D01*
X166444801Y-63230000D01*
X171231928Y-63230000D01*
X171231928Y-65230000D01*
X171244188Y-65354482D01*
X171280498Y-65474180D01*
X171339463Y-65584494D01*
X171418815Y-65681185D01*
X171515506Y-65760537D01*
X171625820Y-65819502D01*
X171745518Y-65855812D01*
X171870000Y-65868072D01*
X171960000Y-65868072D01*
X171960001Y-66211928D01*
X171870000Y-66211928D01*
X171745518Y-66224188D01*
X171625820Y-66260498D01*
X171515506Y-66319463D01*
X171418815Y-66398815D01*
X171339463Y-66495506D01*
X171280498Y-66605820D01*
X171244188Y-66725518D01*
X171231928Y-66850000D01*
X171231928Y-68850000D01*
X171244188Y-68974482D01*
X171280498Y-69094180D01*
X171339463Y-69204494D01*
X171418815Y-69301185D01*
X171515506Y-69380537D01*
X171625820Y-69439502D01*
X171745518Y-69475812D01*
X171870000Y-69488072D01*
X173570000Y-69488072D01*
X173694482Y-69475812D01*
X173814180Y-69439502D01*
X173924494Y-69380537D01*
X174021185Y-69301185D01*
X174100537Y-69204494D01*
X174159502Y-69094180D01*
X174195812Y-68974482D01*
X174208072Y-68850000D01*
X174208072Y-66850000D01*
X174195812Y-66725518D01*
X174159502Y-66605820D01*
X174100537Y-66495506D01*
X174021185Y-66398815D01*
X173924494Y-66319463D01*
X173814180Y-66260498D01*
X173694482Y-66224188D01*
X173570000Y-66211928D01*
X173480000Y-66211928D01*
X173480000Y-65868072D01*
X173570000Y-65868072D01*
X173694482Y-65855812D01*
X173814180Y-65819502D01*
X173924494Y-65760537D01*
X174021185Y-65681185D01*
X174100537Y-65584494D01*
X174159502Y-65474180D01*
X174195812Y-65354482D01*
X174208072Y-65230000D01*
X174208072Y-63230000D01*
X175041928Y-63230000D01*
X175041928Y-65230000D01*
X175054188Y-65354482D01*
X175090498Y-65474180D01*
X175149463Y-65584494D01*
X175228815Y-65681185D01*
X175325506Y-65760537D01*
X175435820Y-65819502D01*
X175555518Y-65855812D01*
X175680000Y-65868072D01*
X175770000Y-65868072D01*
X175770001Y-66211928D01*
X175680000Y-66211928D01*
X175555518Y-66224188D01*
X175435820Y-66260498D01*
X175325506Y-66319463D01*
X175228815Y-66398815D01*
X175149463Y-66495506D01*
X175090498Y-66605820D01*
X175054188Y-66725518D01*
X175041928Y-66850000D01*
X175041928Y-68850000D01*
X175054188Y-68974482D01*
X175090498Y-69094180D01*
X175149463Y-69204494D01*
X175228815Y-69301185D01*
X175325506Y-69380537D01*
X175435820Y-69439502D01*
X175555518Y-69475812D01*
X175680000Y-69488072D01*
X177380000Y-69488072D01*
X177504482Y-69475812D01*
X177624180Y-69439502D01*
X177734494Y-69380537D01*
X177831185Y-69301185D01*
X177910537Y-69204494D01*
X177969502Y-69094180D01*
X178005812Y-68974482D01*
X178018072Y-68850000D01*
X178018072Y-66850000D01*
X178005812Y-66725518D01*
X177969502Y-66605820D01*
X177910537Y-66495506D01*
X177831185Y-66398815D01*
X177734494Y-66319463D01*
X177624180Y-66260498D01*
X177504482Y-66224188D01*
X177380000Y-66211928D01*
X177290000Y-66211928D01*
X177290000Y-65868072D01*
X177380000Y-65868072D01*
X177504482Y-65855812D01*
X177624180Y-65819502D01*
X177734494Y-65760537D01*
X177831185Y-65681185D01*
X177910537Y-65584494D01*
X177969502Y-65474180D01*
X178005812Y-65354482D01*
X178018072Y-65230000D01*
X178018072Y-63230000D01*
X178005812Y-63105518D01*
X177969502Y-62985820D01*
X177910537Y-62875506D01*
X177831185Y-62778815D01*
X177734494Y-62699463D01*
X177624180Y-62640498D01*
X177504482Y-62604188D01*
X177380000Y-62591928D01*
X175680000Y-62591928D01*
X175555518Y-62604188D01*
X175435820Y-62640498D01*
X175325506Y-62699463D01*
X175228815Y-62778815D01*
X175149463Y-62875506D01*
X175090498Y-62985820D01*
X175054188Y-63105518D01*
X175041928Y-63230000D01*
X174208072Y-63230000D01*
X174195812Y-63105518D01*
X174159502Y-62985820D01*
X174100537Y-62875506D01*
X174021185Y-62778815D01*
X173924494Y-62699463D01*
X173814180Y-62640498D01*
X173694482Y-62604188D01*
X173570000Y-62591928D01*
X171870000Y-62591928D01*
X171745518Y-62604188D01*
X171625820Y-62640498D01*
X171515506Y-62699463D01*
X171418815Y-62778815D01*
X171339463Y-62875506D01*
X171280498Y-62985820D01*
X171244188Y-63105518D01*
X171231928Y-63230000D01*
X166444801Y-63230000D01*
X170441003Y-59233799D01*
X170470001Y-59210001D01*
X170564974Y-59094276D01*
X170635546Y-58962247D01*
X170679003Y-58818986D01*
X170690000Y-58707333D01*
X170690000Y-58707323D01*
X170693676Y-58670000D01*
X170690000Y-58632677D01*
X170690000Y-57098043D01*
X170844759Y-56994637D01*
X171044637Y-56794759D01*
X171200000Y-56562241D01*
X171355363Y-56794759D01*
X171555241Y-56994637D01*
X171710000Y-57098044D01*
X171710001Y-58614962D01*
X171625820Y-58640498D01*
X171515506Y-58699463D01*
X171418815Y-58778815D01*
X171339463Y-58875506D01*
X171280498Y-58985820D01*
X171244188Y-59105518D01*
X171231928Y-59230000D01*
X171231928Y-61230000D01*
X171244188Y-61354482D01*
X171280498Y-61474180D01*
X171339463Y-61584494D01*
X171418815Y-61681185D01*
X171515506Y-61760537D01*
X171625820Y-61819502D01*
X171745518Y-61855812D01*
X171870000Y-61868072D01*
X173570000Y-61868072D01*
X173694482Y-61855812D01*
X173814180Y-61819502D01*
X173924494Y-61760537D01*
X174021185Y-61681185D01*
X174100537Y-61584494D01*
X174159502Y-61474180D01*
X174195812Y-61354482D01*
X174208072Y-61230000D01*
X174208072Y-59230000D01*
X175041928Y-59230000D01*
X175041928Y-61230000D01*
X175054188Y-61354482D01*
X175090498Y-61474180D01*
X175149463Y-61584494D01*
X175228815Y-61681185D01*
X175325506Y-61760537D01*
X175435820Y-61819502D01*
X175555518Y-61855812D01*
X175680000Y-61868072D01*
X177380000Y-61868072D01*
X177504482Y-61855812D01*
X177624180Y-61819502D01*
X177734494Y-61760537D01*
X177831185Y-61681185D01*
X177910537Y-61584494D01*
X177969502Y-61474180D01*
X178005812Y-61354482D01*
X178018072Y-61230000D01*
X178018072Y-59230000D01*
X178005812Y-59105518D01*
X177969502Y-58985820D01*
X177910537Y-58875506D01*
X177831185Y-58778815D01*
X177734494Y-58699463D01*
X177624180Y-58640498D01*
X177504482Y-58604188D01*
X177380000Y-58591928D01*
X177290000Y-58591928D01*
X177290000Y-57098043D01*
X177444759Y-56994637D01*
X177644637Y-56794759D01*
X177800000Y-56562241D01*
X177955363Y-56794759D01*
X178155241Y-56994637D01*
X178390273Y-57151680D01*
X178651426Y-57259853D01*
X178928665Y-57315000D01*
X179211335Y-57315000D01*
X179488574Y-57259853D01*
X179749727Y-57151680D01*
X179984759Y-56994637D01*
X180184637Y-56794759D01*
X180340000Y-56562241D01*
X180495363Y-56794759D01*
X180695241Y-56994637D01*
X180930273Y-57151680D01*
X181191426Y-57259853D01*
X181468665Y-57315000D01*
X181751335Y-57315000D01*
X182028574Y-57259853D01*
X182289727Y-57151680D01*
X182524759Y-56994637D01*
X182724637Y-56794759D01*
X182880000Y-56562241D01*
X183035363Y-56794759D01*
X183235241Y-56994637D01*
X183470273Y-57151680D01*
X183731426Y-57259853D01*
X184008665Y-57315000D01*
X184291335Y-57315000D01*
X184568574Y-57259853D01*
X184829727Y-57151680D01*
X185064759Y-56994637D01*
X185264637Y-56794759D01*
X185420000Y-56562241D01*
X185575363Y-56794759D01*
X185775241Y-56994637D01*
X185930001Y-57098044D01*
X185930001Y-57112668D01*
X185926324Y-57150000D01*
X185940998Y-57298985D01*
X185984454Y-57442246D01*
X186055026Y-57574276D01*
X186089300Y-57616038D01*
X186150000Y-57690001D01*
X186178998Y-57713799D01*
X189740000Y-61274802D01*
X189740001Y-73345197D01*
X188719003Y-74366196D01*
X188689999Y-74389999D01*
X188634871Y-74457174D01*
X188595026Y-74505724D01*
X188560957Y-74569463D01*
X188524454Y-74637754D01*
X188480997Y-74781015D01*
X188470000Y-74892668D01*
X188470000Y-74892678D01*
X188466324Y-74930000D01*
X188470000Y-74967323D01*
X188470001Y-78932668D01*
X188466324Y-78970000D01*
X188480998Y-79118985D01*
X188524454Y-79262246D01*
X188595026Y-79394276D01*
X188657171Y-79469999D01*
X188690000Y-79510001D01*
X188718998Y-79533799D01*
X189706200Y-80521002D01*
X189729999Y-80550001D01*
X189758997Y-80573799D01*
X189845723Y-80644974D01*
X189881928Y-80664326D01*
X189881928Y-80860000D01*
X189894188Y-80984482D01*
X189930498Y-81104180D01*
X189989463Y-81214494D01*
X190043222Y-81280000D01*
X189989463Y-81345506D01*
X189930498Y-81455820D01*
X189894188Y-81575518D01*
X189881928Y-81700000D01*
X189881928Y-81895674D01*
X189845723Y-81915026D01*
X189815947Y-81939463D01*
X189729999Y-82009999D01*
X189706201Y-82038997D01*
X188718998Y-83026201D01*
X188690000Y-83049999D01*
X188666202Y-83078997D01*
X188666201Y-83078998D01*
X188595026Y-83165724D01*
X188524454Y-83297754D01*
X188480998Y-83441015D01*
X188466324Y-83590000D01*
X188470001Y-83627332D01*
X188470000Y-92830200D01*
X185635000Y-95665201D01*
X185635000Y-95662998D01*
X185476252Y-95662998D01*
X185635000Y-95504250D01*
X185638072Y-94790000D01*
X185625812Y-94665518D01*
X185589502Y-94545820D01*
X185530537Y-94435506D01*
X185451185Y-94338815D01*
X185354494Y-94259463D01*
X185244180Y-94200498D01*
X185124482Y-94164188D01*
X185000000Y-94151928D01*
X184435750Y-94155000D01*
X184277000Y-94313750D01*
X184277000Y-95663000D01*
X184297000Y-95663000D01*
X184297000Y-95917000D01*
X184277000Y-95917000D01*
X184277000Y-95937000D01*
X184023000Y-95937000D01*
X184023000Y-95917000D01*
X181737000Y-95917000D01*
X181737000Y-97266250D01*
X181895750Y-97425000D01*
X182460000Y-97428072D01*
X182584482Y-97415812D01*
X182704180Y-97379502D01*
X182814494Y-97320537D01*
X182880000Y-97266778D01*
X182945506Y-97320537D01*
X182984056Y-97341142D01*
X182173270Y-98151928D01*
X180760000Y-98151928D01*
X180635518Y-98164188D01*
X180515820Y-98200498D01*
X180405506Y-98259463D01*
X180308815Y-98338815D01*
X180229463Y-98435506D01*
X180170498Y-98545820D01*
X180134188Y-98665518D01*
X180121928Y-98790000D01*
X180121928Y-100790000D01*
X180134188Y-100914482D01*
X180170498Y-101034180D01*
X180229463Y-101144494D01*
X180308815Y-101241185D01*
X180405506Y-101320537D01*
X180515820Y-101379502D01*
X180635518Y-101415812D01*
X180760000Y-101428072D01*
X180850001Y-101428072D01*
X180850000Y-102921956D01*
X180695241Y-103025363D01*
X180495363Y-103225241D01*
X180338320Y-103460273D01*
X180230147Y-103721426D01*
X180175000Y-103998665D01*
X180175000Y-104281335D01*
X180230147Y-104558574D01*
X180338320Y-104819727D01*
X180495363Y-105054759D01*
X180695241Y-105254637D01*
X180930273Y-105411680D01*
X181191426Y-105519853D01*
X181468665Y-105575000D01*
X181751335Y-105575000D01*
X182028574Y-105519853D01*
X182289727Y-105411680D01*
X182524759Y-105254637D01*
X182724637Y-105054759D01*
X182880000Y-104822241D01*
X183035363Y-105054759D01*
X183235241Y-105254637D01*
X183470273Y-105411680D01*
X183731426Y-105519853D01*
X184008665Y-105575000D01*
X184291335Y-105575000D01*
X184568574Y-105519853D01*
X184829727Y-105411680D01*
X185064759Y-105254637D01*
X185264637Y-105054759D01*
X185420000Y-104822241D01*
X185575363Y-105054759D01*
X185775241Y-105254637D01*
X186010273Y-105411680D01*
X186271426Y-105519853D01*
X186548665Y-105575000D01*
X186831335Y-105575000D01*
X187108574Y-105519853D01*
X187369727Y-105411680D01*
X187604759Y-105254637D01*
X187804637Y-105054759D01*
X187960000Y-104822241D01*
X188115363Y-105054759D01*
X188315241Y-105254637D01*
X188550273Y-105411680D01*
X188811426Y-105519853D01*
X189088665Y-105575000D01*
X189371335Y-105575000D01*
X189648574Y-105519853D01*
X189909727Y-105411680D01*
X190144759Y-105254637D01*
X190344637Y-105054759D01*
X190500000Y-104822241D01*
X190655363Y-105054759D01*
X190855241Y-105254637D01*
X191090273Y-105411680D01*
X191351426Y-105519853D01*
X191628665Y-105575000D01*
X191911335Y-105575000D01*
X192188574Y-105519853D01*
X192449727Y-105411680D01*
X192684759Y-105254637D01*
X192884637Y-105054759D01*
X193040000Y-104822241D01*
X193195363Y-105054759D01*
X193395241Y-105254637D01*
X193630273Y-105411680D01*
X193891426Y-105519853D01*
X194168665Y-105575000D01*
X194451335Y-105575000D01*
X194728574Y-105519853D01*
X194989727Y-105411680D01*
X195224759Y-105254637D01*
X195424637Y-105054759D01*
X195581680Y-104819727D01*
X195689853Y-104558574D01*
X195745000Y-104281335D01*
X195745000Y-103998665D01*
X195689853Y-103721426D01*
X195581680Y-103460273D01*
X195424637Y-103225241D01*
X195224759Y-103025363D01*
X194989727Y-102868320D01*
X194728574Y-102760147D01*
X194451335Y-102705000D01*
X194168665Y-102705000D01*
X193891426Y-102760147D01*
X193630273Y-102868320D01*
X193395241Y-103025363D01*
X193195363Y-103225241D01*
X193040000Y-103457759D01*
X192884637Y-103225241D01*
X192684759Y-103025363D01*
X192449727Y-102868320D01*
X192188574Y-102760147D01*
X191911335Y-102705000D01*
X191628665Y-102705000D01*
X191351426Y-102760147D01*
X191090273Y-102868320D01*
X190855241Y-103025363D01*
X190655363Y-103225241D01*
X190500000Y-103457759D01*
X190344637Y-103225241D01*
X190144759Y-103025363D01*
X189909727Y-102868320D01*
X189648574Y-102760147D01*
X189371335Y-102705000D01*
X189088665Y-102705000D01*
X188811426Y-102760147D01*
X188550273Y-102868320D01*
X188315241Y-103025363D01*
X188115363Y-103225241D01*
X187960000Y-103457759D01*
X187804637Y-103225241D01*
X187604759Y-103025363D01*
X187369727Y-102868320D01*
X187108574Y-102760147D01*
X186831335Y-102705000D01*
X186548665Y-102705000D01*
X186271426Y-102760147D01*
X186010273Y-102868320D01*
X185775241Y-103025363D01*
X185575363Y-103225241D01*
X185420000Y-103457759D01*
X185264637Y-103225241D01*
X185064759Y-103025363D01*
X184910000Y-102921957D01*
X184910000Y-101428072D01*
X185000000Y-101428072D01*
X185124482Y-101415812D01*
X185244180Y-101379502D01*
X185354494Y-101320537D01*
X185451185Y-101241185D01*
X185530537Y-101144494D01*
X185589502Y-101034180D01*
X185625812Y-100914482D01*
X185638072Y-100790000D01*
X185638072Y-99846908D01*
X185643677Y-99790000D01*
X185638072Y-99733092D01*
X185638072Y-99376729D01*
X186174929Y-98839872D01*
X194615000Y-98839872D01*
X194615000Y-99280128D01*
X194700890Y-99711925D01*
X194869369Y-100118669D01*
X195113962Y-100484729D01*
X195425271Y-100796038D01*
X195791331Y-101040631D01*
X196198075Y-101209110D01*
X196629872Y-101295000D01*
X197070128Y-101295000D01*
X197501925Y-101209110D01*
X197908669Y-101040631D01*
X198274729Y-100796038D01*
X198586038Y-100484729D01*
X198830631Y-100118669D01*
X198999110Y-99711925D01*
X199085000Y-99280128D01*
X199085000Y-98839872D01*
X198999110Y-98408075D01*
X198830631Y-98001331D01*
X198586038Y-97635271D01*
X198274729Y-97323962D01*
X197908669Y-97079369D01*
X197501925Y-96910890D01*
X197070128Y-96825000D01*
X196629872Y-96825000D01*
X196198075Y-96910890D01*
X195791331Y-97079369D01*
X195425271Y-97323962D01*
X195113962Y-97635271D01*
X194869369Y-98001331D01*
X194700890Y-98408075D01*
X194615000Y-98839872D01*
X186174929Y-98839872D01*
X192281004Y-92733798D01*
X192310001Y-92710001D01*
X192404974Y-92594276D01*
X192475546Y-92462247D01*
X192519003Y-92318986D01*
X192530000Y-92207333D01*
X192530000Y-92207324D01*
X192533676Y-92170001D01*
X192530000Y-92132678D01*
X192530000Y-91658072D01*
X193020000Y-91658072D01*
X193144482Y-91645812D01*
X193264180Y-91609502D01*
X193374494Y-91550537D01*
X193471185Y-91471185D01*
X193550537Y-91374494D01*
X193609502Y-91264180D01*
X193645812Y-91144482D01*
X193658072Y-91020000D01*
X193658072Y-89320000D01*
X193645812Y-89195518D01*
X193609502Y-89075820D01*
X193550537Y-88965506D01*
X193496778Y-88900000D01*
X193550537Y-88834494D01*
X193609502Y-88724180D01*
X193645812Y-88604482D01*
X193658072Y-88480000D01*
X193658072Y-88284326D01*
X193694276Y-88264974D01*
X193810001Y-88170001D01*
X193833804Y-88140997D01*
X196091004Y-85883798D01*
X196120001Y-85860001D01*
X196214974Y-85744276D01*
X196285546Y-85612247D01*
X196329003Y-85468986D01*
X196340000Y-85357333D01*
X196340000Y-85357324D01*
X196343676Y-85320001D01*
X196340000Y-85282678D01*
X196340000Y-74967325D01*
X196343676Y-74930000D01*
X196340000Y-74892675D01*
X196340000Y-74892667D01*
X196329003Y-74781014D01*
X196285546Y-74637753D01*
X196214974Y-74505724D01*
X196120001Y-74389999D01*
X196091003Y-74366201D01*
X192624674Y-70899872D01*
X194615000Y-70899872D01*
X194615000Y-71340128D01*
X194700890Y-71771925D01*
X194869369Y-72178669D01*
X195113962Y-72544729D01*
X195425271Y-72856038D01*
X195791331Y-73100631D01*
X196198075Y-73269110D01*
X196629872Y-73355000D01*
X197070128Y-73355000D01*
X197501925Y-73269110D01*
X197908669Y-73100631D01*
X198274729Y-72856038D01*
X198586038Y-72544729D01*
X198830631Y-72178669D01*
X198999110Y-71771925D01*
X199085000Y-71340128D01*
X199085000Y-70899872D01*
X198999110Y-70468075D01*
X198830631Y-70061331D01*
X198586038Y-69695271D01*
X198274729Y-69383962D01*
X197908669Y-69139369D01*
X197501925Y-68970890D01*
X197070128Y-68885000D01*
X196629872Y-68885000D01*
X196198075Y-68970890D01*
X195791331Y-69139369D01*
X195425271Y-69383962D01*
X195113962Y-69695271D01*
X194869369Y-70061331D01*
X194700890Y-70468075D01*
X194615000Y-70899872D01*
X192624674Y-70899872D01*
X192530000Y-70805199D01*
X192530000Y-58457322D01*
X192533676Y-58419999D01*
X192530000Y-58382676D01*
X192530000Y-58382667D01*
X192519003Y-58271014D01*
X192475546Y-58127753D01*
X192404974Y-57995724D01*
X192391811Y-57979685D01*
X192333799Y-57908996D01*
X192333795Y-57908992D01*
X192310001Y-57879999D01*
X192281008Y-57856205D01*
X191739803Y-57315000D01*
X191911335Y-57315000D01*
X192188574Y-57259853D01*
X192449727Y-57151680D01*
X192684759Y-56994637D01*
X192884637Y-56794759D01*
X193040000Y-56562241D01*
X193195363Y-56794759D01*
X193395241Y-56994637D01*
X193630273Y-57151680D01*
X193891426Y-57259853D01*
X194168665Y-57315000D01*
X194451335Y-57315000D01*
X194728574Y-57259853D01*
X194989727Y-57151680D01*
X195224759Y-56994637D01*
X195424637Y-56794759D01*
X195581680Y-56559727D01*
X195689853Y-56298574D01*
X195745000Y-56021335D01*
X195745000Y-55738665D01*
X195689853Y-55461426D01*
X195581680Y-55200273D01*
X195424637Y-54965241D01*
X195224759Y-54765363D01*
X194989727Y-54608320D01*
X194728574Y-54500147D01*
X194451335Y-54445000D01*
X194168665Y-54445000D01*
X193891426Y-54500147D01*
X193630273Y-54608320D01*
X193395241Y-54765363D01*
X193195363Y-54965241D01*
X193040000Y-55197759D01*
X192884637Y-54965241D01*
X192684759Y-54765363D01*
X192449727Y-54608320D01*
X192188574Y-54500147D01*
X191911335Y-54445000D01*
X191628665Y-54445000D01*
X191351426Y-54500147D01*
X191090273Y-54608320D01*
X190855241Y-54765363D01*
X190655363Y-54965241D01*
X190500000Y-55197759D01*
X190344637Y-54965241D01*
X190144759Y-54765363D01*
X189909727Y-54608320D01*
X189648574Y-54500147D01*
X189371335Y-54445000D01*
X189088665Y-54445000D01*
X188811426Y-54500147D01*
X188550273Y-54608320D01*
X188315241Y-54765363D01*
X188115363Y-54965241D01*
X187960000Y-55197759D01*
X187804637Y-54965241D01*
X187604759Y-54765363D01*
X187369727Y-54608320D01*
X187108574Y-54500147D01*
X186831335Y-54445000D01*
X186548665Y-54445000D01*
X186271426Y-54500147D01*
X186010273Y-54608320D01*
X185775241Y-54765363D01*
X185575363Y-54965241D01*
X185420000Y-55197759D01*
X185264637Y-54965241D01*
X185064759Y-54765363D01*
X184829727Y-54608320D01*
X184568574Y-54500147D01*
X184291335Y-54445000D01*
X184008665Y-54445000D01*
X183731426Y-54500147D01*
X183470273Y-54608320D01*
X183235241Y-54765363D01*
X183035363Y-54965241D01*
X182880000Y-55197759D01*
X182724637Y-54965241D01*
X182524759Y-54765363D01*
X182289727Y-54608320D01*
X182028574Y-54500147D01*
X181751335Y-54445000D01*
X181468665Y-54445000D01*
X181191426Y-54500147D01*
X180930273Y-54608320D01*
X180695241Y-54765363D01*
X180495363Y-54965241D01*
X180340000Y-55197759D01*
X180184637Y-54965241D01*
X179984759Y-54765363D01*
X179749727Y-54608320D01*
X179488574Y-54500147D01*
X179211335Y-54445000D01*
X178928665Y-54445000D01*
X178651426Y-54500147D01*
X178390273Y-54608320D01*
X178155241Y-54765363D01*
X177955363Y-54965241D01*
X177800000Y-55197759D01*
X177644637Y-54965241D01*
X177444759Y-54765363D01*
X177209727Y-54608320D01*
X176948574Y-54500147D01*
X176671335Y-54445000D01*
X176388665Y-54445000D01*
X176111426Y-54500147D01*
X175850273Y-54608320D01*
X175615241Y-54765363D01*
X175415363Y-54965241D01*
X175258320Y-55200273D01*
X175150147Y-55461426D01*
X175095000Y-55738665D01*
X175095000Y-56021335D01*
X175150147Y-56298574D01*
X175258320Y-56559727D01*
X175415363Y-56794759D01*
X175615241Y-56994637D01*
X175770000Y-57098044D01*
X175770001Y-58591928D01*
X175680000Y-58591928D01*
X175555518Y-58604188D01*
X175435820Y-58640498D01*
X175325506Y-58699463D01*
X175228815Y-58778815D01*
X175149463Y-58875506D01*
X175090498Y-58985820D01*
X175054188Y-59105518D01*
X175041928Y-59230000D01*
X174208072Y-59230000D01*
X174195812Y-59105518D01*
X174159502Y-58985820D01*
X174100537Y-58875506D01*
X174021185Y-58778815D01*
X173924494Y-58699463D01*
X173814180Y-58640498D01*
X173694482Y-58604188D01*
X173570000Y-58591928D01*
X173230000Y-58591928D01*
X173230000Y-57098043D01*
X173384759Y-56994637D01*
X173584637Y-56794759D01*
X173741680Y-56559727D01*
X173849853Y-56298574D01*
X173905000Y-56021335D01*
X173905000Y-55738665D01*
X173849853Y-55461426D01*
X173741680Y-55200273D01*
X173584637Y-54965241D01*
X173384759Y-54765363D01*
X173149727Y-54608320D01*
X172888574Y-54500147D01*
X172611335Y-54445000D01*
X172328665Y-54445000D01*
X172051426Y-54500147D01*
X171790273Y-54608320D01*
X171555241Y-54765363D01*
X171355363Y-54965241D01*
X171200000Y-55197759D01*
X171044637Y-54965241D01*
X170844759Y-54765363D01*
X170609727Y-54608320D01*
X170348574Y-54500147D01*
X170071335Y-54445000D01*
X169788665Y-54445000D01*
X169511426Y-54500147D01*
X169250273Y-54608320D01*
X169015241Y-54765363D01*
X168815363Y-54965241D01*
X168660000Y-55197759D01*
X168504637Y-54965241D01*
X168304759Y-54765363D01*
X168069727Y-54608320D01*
X167808574Y-54500147D01*
X167531335Y-54445000D01*
X167248665Y-54445000D01*
X166971426Y-54500147D01*
X166710273Y-54608320D01*
X166475241Y-54765363D01*
X166275363Y-54965241D01*
X166120000Y-55197759D01*
X165964637Y-54965241D01*
X165764759Y-54765363D01*
X165529727Y-54608320D01*
X165268574Y-54500147D01*
X164991335Y-54445000D01*
X164708665Y-54445000D01*
X164431426Y-54500147D01*
X164170273Y-54608320D01*
X163935241Y-54765363D01*
X163735363Y-54965241D01*
X163580000Y-55197759D01*
X163424637Y-54965241D01*
X163224759Y-54765363D01*
X162989727Y-54608320D01*
X162728574Y-54500147D01*
X162451335Y-54445000D01*
X162168665Y-54445000D01*
X161891426Y-54500147D01*
X161630273Y-54608320D01*
X161395241Y-54765363D01*
X161195363Y-54965241D01*
X161040000Y-55197759D01*
X160884637Y-54965241D01*
X160684759Y-54765363D01*
X160449727Y-54608320D01*
X160188574Y-54500147D01*
X159911335Y-54445000D01*
X159628665Y-54445000D01*
X159351426Y-54500147D01*
X159090273Y-54608320D01*
X158855241Y-54765363D01*
X158655363Y-54965241D01*
X158500000Y-55197759D01*
X158344637Y-54965241D01*
X158144759Y-54765363D01*
X157909727Y-54608320D01*
X157648574Y-54500147D01*
X157371335Y-54445000D01*
X157088665Y-54445000D01*
X156811426Y-54500147D01*
X156550273Y-54608320D01*
X156315241Y-54765363D01*
X156115363Y-54965241D01*
X155960000Y-55197759D01*
X155804637Y-54965241D01*
X155604759Y-54765363D01*
X155369727Y-54608320D01*
X155108574Y-54500147D01*
X154831335Y-54445000D01*
X154548665Y-54445000D01*
X154271426Y-54500147D01*
X154010273Y-54608320D01*
X153775241Y-54765363D01*
X153575363Y-54965241D01*
X153420000Y-55197759D01*
X153264637Y-54965241D01*
X153064759Y-54765363D01*
X152829727Y-54608320D01*
X152568574Y-54500147D01*
X152291335Y-54445000D01*
X152008665Y-54445000D01*
X151731426Y-54500147D01*
X151470273Y-54608320D01*
X151235241Y-54765363D01*
X151035363Y-54965241D01*
X150880000Y-55197759D01*
X150724637Y-54965241D01*
X150524759Y-54765363D01*
X150289727Y-54608320D01*
X150028574Y-54500147D01*
X149751335Y-54445000D01*
X149468665Y-54445000D01*
X149191426Y-54500147D01*
X148930273Y-54608320D01*
X148695241Y-54765363D01*
X148495363Y-54965241D01*
X148338320Y-55200273D01*
X148240537Y-55436342D01*
X148199110Y-55228075D01*
X148030631Y-54821331D01*
X147786038Y-54455271D01*
X147474729Y-54143962D01*
X147108669Y-53899369D01*
X146701925Y-53730890D01*
X146270128Y-53645000D01*
X145829872Y-53645000D01*
X145398075Y-53730890D01*
X144991331Y-53899369D01*
X144625271Y-54143962D01*
X144313962Y-54455271D01*
X144069369Y-54821331D01*
X143900890Y-55228075D01*
X143815000Y-55659872D01*
X130937000Y-55659872D01*
X130937000Y-53467000D01*
X195527394Y-53467000D01*
X196723000Y-54662606D01*
G37*
%TD.AperFunction*%
D18*
X194820001Y-75244803D02*
X194820000Y-85005198D01*
X193573311Y-86251888D01*
X193609502Y-86184180D01*
X193645812Y-86064482D01*
X193658072Y-85940000D01*
X193655000Y-85375750D01*
X193496250Y-85217000D01*
X191897000Y-85217000D01*
X191897000Y-85237000D01*
X191643000Y-85237000D01*
X191643000Y-85217000D01*
X191623000Y-85217000D01*
X191623000Y-84963000D01*
X191643000Y-84963000D01*
X191643000Y-84943000D01*
X191897000Y-84943000D01*
X191897000Y-84963000D01*
X193496250Y-84963000D01*
X193655000Y-84804250D01*
X193658072Y-84240000D01*
X193645812Y-84115518D01*
X193609502Y-83995820D01*
X193550537Y-83885506D01*
X193496778Y-83820000D01*
X193550537Y-83754494D01*
X193609502Y-83644180D01*
X193645812Y-83524482D01*
X193658072Y-83400000D01*
X193658072Y-81700000D01*
X193645812Y-81575518D01*
X193609502Y-81455820D01*
X193550537Y-81345506D01*
X193496778Y-81280000D01*
X193550537Y-81214494D01*
X193609502Y-81104180D01*
X193645812Y-80984482D01*
X193658072Y-80860000D01*
X193658072Y-79160000D01*
X193645812Y-79035518D01*
X193609502Y-78915820D01*
X193550537Y-78805506D01*
X193496778Y-78740000D01*
X193550537Y-78674494D01*
X193609502Y-78564180D01*
X193645812Y-78444482D01*
X193658072Y-78320000D01*
X193655000Y-77755750D01*
X193496250Y-77597000D01*
X191897000Y-77597000D01*
X191897000Y-77617000D01*
X191643000Y-77617000D01*
X191643000Y-77597000D01*
X191623000Y-77597000D01*
X191623000Y-77343000D01*
X191643000Y-77343000D01*
X191643000Y-76143750D01*
X191897000Y-76143750D01*
X191897000Y-77343000D01*
X193496250Y-77343000D01*
X193655000Y-77184250D01*
X193658072Y-76620000D01*
X193645812Y-76495518D01*
X193609502Y-76375820D01*
X193550537Y-76265506D01*
X193471185Y-76168815D01*
X193374494Y-76089463D01*
X193264180Y-76030498D01*
X193144482Y-75994188D01*
X193020000Y-75981928D01*
X192055750Y-75985000D01*
X191897000Y-76143750D01*
X191643000Y-76143750D01*
X191484250Y-75985000D01*
X190520000Y-75981928D01*
X190395518Y-75994188D01*
X190275820Y-76030498D01*
X190165506Y-76089463D01*
X190068815Y-76168815D01*
X189990000Y-76264852D01*
X189990000Y-75244801D01*
X191011003Y-74223799D01*
X191040001Y-74200001D01*
X191134974Y-74084276D01*
X191205546Y-73952247D01*
X191249003Y-73808986D01*
X191260000Y-73697333D01*
X191260000Y-73697324D01*
X191263676Y-73660001D01*
X191260000Y-73622678D01*
X191260000Y-71684801D01*
X194820001Y-75244803D01*
%TA.AperFunction,Conductor*%
D19*
G36*
X194820001Y-75244803D02*
G01*
X194820000Y-85005198D01*
X193573311Y-86251888D01*
X193609502Y-86184180D01*
X193645812Y-86064482D01*
X193658072Y-85940000D01*
X193655000Y-85375750D01*
X193496250Y-85217000D01*
X191897000Y-85217000D01*
X191897000Y-85237000D01*
X191643000Y-85237000D01*
X191643000Y-85217000D01*
X191623000Y-85217000D01*
X191623000Y-84963000D01*
X191643000Y-84963000D01*
X191643000Y-84943000D01*
X191897000Y-84943000D01*
X191897000Y-84963000D01*
X193496250Y-84963000D01*
X193655000Y-84804250D01*
X193658072Y-84240000D01*
X193645812Y-84115518D01*
X193609502Y-83995820D01*
X193550537Y-83885506D01*
X193496778Y-83820000D01*
X193550537Y-83754494D01*
X193609502Y-83644180D01*
X193645812Y-83524482D01*
X193658072Y-83400000D01*
X193658072Y-81700000D01*
X193645812Y-81575518D01*
X193609502Y-81455820D01*
X193550537Y-81345506D01*
X193496778Y-81280000D01*
X193550537Y-81214494D01*
X193609502Y-81104180D01*
X193645812Y-80984482D01*
X193658072Y-80860000D01*
X193658072Y-79160000D01*
X193645812Y-79035518D01*
X193609502Y-78915820D01*
X193550537Y-78805506D01*
X193496778Y-78740000D01*
X193550537Y-78674494D01*
X193609502Y-78564180D01*
X193645812Y-78444482D01*
X193658072Y-78320000D01*
X193655000Y-77755750D01*
X193496250Y-77597000D01*
X191897000Y-77597000D01*
X191897000Y-77617000D01*
X191643000Y-77617000D01*
X191643000Y-77597000D01*
X191623000Y-77597000D01*
X191623000Y-77343000D01*
X191643000Y-77343000D01*
X191643000Y-76143750D01*
X191897000Y-76143750D01*
X191897000Y-77343000D01*
X193496250Y-77343000D01*
X193655000Y-77184250D01*
X193658072Y-76620000D01*
X193645812Y-76495518D01*
X193609502Y-76375820D01*
X193550537Y-76265506D01*
X193471185Y-76168815D01*
X193374494Y-76089463D01*
X193264180Y-76030498D01*
X193144482Y-75994188D01*
X193020000Y-75981928D01*
X192055750Y-75985000D01*
X191897000Y-76143750D01*
X191643000Y-76143750D01*
X191484250Y-75985000D01*
X190520000Y-75981928D01*
X190395518Y-75994188D01*
X190275820Y-76030498D01*
X190165506Y-76089463D01*
X190068815Y-76168815D01*
X189990000Y-76264852D01*
X189990000Y-75244801D01*
X191011003Y-74223799D01*
X191040001Y-74200001D01*
X191134974Y-74084276D01*
X191205546Y-73952247D01*
X191249003Y-73808986D01*
X191260000Y-73697333D01*
X191260000Y-73697324D01*
X191263676Y-73660001D01*
X191260000Y-73622678D01*
X191260000Y-71684801D01*
X194820001Y-75244803D01*
G37*
%TD.AperFunction*%
%TD*%
M02*
