<?xml version="1.0" encoding="UTF-8" standalone="no"?>
<svg
   xmlns:dc="http://purl.org/dc/elements/1.1/"
   xmlns:cc="http://creativecommons.org/ns#"
   xmlns:rdf="http://www.w3.org/1999/02/22-rdf-syntax-ns#"
   xmlns:svg="http://www.w3.org/2000/svg"
   xmlns="http://www.w3.org/2000/svg"
   xmlns:sodipodi="http://sodipodi.sourceforge.net/DTD/sodipodi-0.dtd"
   xmlns:inkscape="http://www.inkscape.org/namespaces/inkscape"
   id="svg8"
   version="1.1"
   viewBox="0 0 210 297"
   height="297mm"
   width="210mm"
   sodipodi:docname="Mainbox.svg"
   inkscape:version="1.0.2-2 (e86c870879, 2021-01-15)">
  <defs
     id="defs2" />
  <sodipodi:namedview
     id="base"
     pagecolor="#ffffff"
     bordercolor="#666666"
     borderopacity="1.0"
     inkscape:pageopacity="0.0"
     inkscape:pageshadow="2"
     inkscape:zoom="0.24748737"
     inkscape:cx="1085.7698"
     inkscape:cy="1050.0842"
     inkscape:document-units="mm"
     inkscape:current-layer="layer1"
     inkscape:document-rotation="0"
     showgrid="false"
     inkscape:window-width="1920"
     inkscape:window-height="1017"
     inkscape:window-x="-8"
     inkscape:window-y="-8"
     inkscape:window-maximized="1" />
  <metadata
     id="metadata5">
    <rdf:RDF>
      <cc:Work
         rdf:about="">
        <dc:format>image/svg+xml</dc:format>
        <dc:type
           rdf:resource="http://purl.org/dc/dcmitype/StillImage" />
      </cc:Work>
    </rdf:RDF>
  </metadata>
  <g
     inkscape:label="Taso 1"
     inkscape:groupmode="layer"
     id="layer1">
    <g
       id="panel3262"
       transform="translate(223.7619,-39.309524)"
       style="stroke-width:0.22;stroke-miterlimit:4;stroke-dasharray:none">
      <path
         style="fill:none;stroke:#000000;stroke-width:0.22;stroke-miterlimit:4;stroke-dasharray:none"
         d="m 186,350 h 10.753 v -3 h 11.021 v 3 h 10.663 v -3 h 11.021 v 3 h 10.663 v -3 h 11.021 v 3 h 10.663 v -3 h 11.021 v 3 h 10.663 v -3 h 11.022 v 3 h 10.663 v -3 h 11.021 v 3 h 10.663 v -3 h 11.021 v 3 h 10.663 v -3 h 11.021 v 3 h 10.663 v -3 h 11.021 v 3 H 392"
         id="path76" />
      <path
         style="fill:none;stroke:#000000;stroke-width:0.22;stroke-miterlimit:4;stroke-dasharray:none"
         d="m 392,350 v 7.442 h -3 v 10.174 h 3 v 10.532 h -3 v 10.174 h 3 v 10.532 h -3 v 10.174 h 3 v 10.532 h -3 v 10.174 h 3 v 10.532 h -3 v 10.174 h 3 v 10.532 h -3 v 10.174 h 3 v 10.532 h -3 v 10.174 h 3 v 10.532 h -3 v 10.174 h 3 V 520"
         id="path78" />
      <path
         style="fill:none;stroke:#000000;stroke-width:0.22;stroke-miterlimit:4;stroke-dasharray:none"
         d="m 392,520 h -10.753 v 0 h -11.021 v 0 h -10.663 v 0 h -11.021 v 0 h -10.663 v 0 h -11.021 v 0 h -10.663 v 0 h -11.021 v 0 h -10.663 v 0 h -11.022 v 0 h -10.663 v 0 h -11.021 v 0 h -10.663 v 0 h -11.021 v 0 h -10.663 v 0 h -11.021 v 0 h -10.663 v 0 h -11.021 v 0 H 186"
         id="path80" />
      <path
         style="fill:none;stroke:#000000;stroke-width:0.22;stroke-miterlimit:4;stroke-dasharray:none"
         d="m 186,520 v -7.442 h 3 v -10.174 h -3 v -10.532 h 3 v -10.174 h -3 v -10.532 h 3 v -10.174 h -3 V 450.44 h 3 v -10.174 h -3 v -10.532 h 3 V 419.56 h -3 v -10.532 h 3 v -10.174 h -3 v -10.532 h 3 v -10.174 h -3 v -10.532 h 3 v -10.174 h -3 V 350"
         id="path82" />
    </g>
    <g
       id="panel3275"
       transform="translate(223.7619,-39.309524)"
       style="stroke-width:0.22;stroke-miterlimit:4;stroke-dasharray:none">
      <path
         style="fill:none;stroke:#000000;stroke-width:0.22;stroke-miterlimit:4;stroke-dasharray:none"
         d="m 8,189 h 7.2634 v -3 h 10.532 v 3 h 10.1739 v -3 h 10.532 v 3 h 10.1739 v -3 h 10.5319 v 3 h 10.174 v -3 H 87.913 v 3 h 10.174 v -3 h 10.532 v 3 h 10.174 v -3 h 10.532 v 3 h 10.174 v -3 h 10.532 v 3 h 10.174 v -3 h 10.532 v 3 H 178"
         id="path115" />
      <path
         style="fill:none;stroke:#000000;stroke-width:0.22;stroke-miterlimit:4;stroke-dasharray:none"
         d="m 178,189 v 7.31 h 3 v 10.58 h -3 v 10.22 h 3 v 10.58 h -3 v 10.22 h 3 v 10.58 h -3 v 10.22 h 3 v 10.58 h -3 v 10.22 h 3 v 10.58 h -3 v 10.22 h 3 v 10.58 h -3 v 10.22 h 3 v 10.58 h -3 V 339"
         id="path117" />
      <path
         style="fill:none;stroke:#000000;stroke-width:0.22;stroke-miterlimit:4;stroke-dasharray:none"
         d="m 178,339 h -7.263 v 3 h -10.532 v -3 h -10.174 v 3 h -10.532 v -3 h -10.174 v 3 h -10.532 v -3 h -10.174 v 3 H 98.087 v -3 H 87.913 v 3 H 77.3811 v -3 h -10.174 v 3 H 56.6752 v -3 H 46.5013 v 3 h -10.532 v -3 H 25.7954 v 3 h -10.532 v -3 H 8"
         id="path119" />
      <path
         style="fill:none;stroke:#000000;stroke-width:0.22;stroke-miterlimit:4;stroke-dasharray:none"
         d="m 8,339 v -7.31 0 -10.58 0 -10.22 0 -10.58 0 -10.22 0 -10.58 0 -10.22 0 -10.58 0 -10.22 0 -10.58 0 -10.22 0 -10.58 0 -10.22 0 -10.58 0 -7.31"
         id="path121" />
    </g>
    <g
       id="panel8678"
       transform="translate(223.7619,-39.309524)"
       style="stroke-width:0.22;stroke-miterlimit:4;stroke-dasharray:none">
      <path
         style="fill:none;stroke:#000000;stroke-width:0.22;stroke-miterlimit:4;stroke-dasharray:none"
         d="m 186,186 h 10.932 v 3 h 10.663 v -3 h 11.021 v 3 h 10.663 v -3 H 240.3 v 3 h 10.663 v -3 h 11.021 v 3 h 10.663 v -3 h 11.021 v 3 h 10.664 v -3 h 11.021 v 3 h 10.663 v -3 h 11.021 v 3 H 337.7 v -3 h 11.021 v 3 h 10.663 v -3 h 11.021 v 3 h 10.663 v -3 H 392"
         id="path163" />
      <path
         style="fill:none;stroke:#000000;stroke-width:0.22;stroke-miterlimit:4;stroke-dasharray:none"
         d="m 392,186 v 10.49 h -3 v 10.22 h 3 v 10.58 h -3 v 10.22 h 3 v 10.58 h -3 v 10.22 h 3 v 10.58 h -3 v 10.22 h 3 v 10.58 h -3 v 10.22 h 3 v 10.58 h -3 v 10.22 h 3 v 10.58 h -3 v 10.22 h 3 V 342"
         id="path165" />
      <path
         style="fill:none;stroke:#000000;stroke-width:0.22;stroke-miterlimit:4;stroke-dasharray:none"
         d="m 392,342 h -10.932 v -3 h -10.663 v 3 h -11.021 v -3 h -10.663 v 3 H 337.7 v -3 h -10.663 v 3 h -11.021 v -3 h -10.663 v 3 h -11.021 v -3 h -10.664 v 3 h -11.021 v -3 h -10.663 v 3 h -11.021 v -3 H 240.3 v 3 h -11.021 v -3 h -10.663 v 3 h -11.021 v -3 h -10.663 v 3 H 186"
         id="path167" />
      <path
         style="fill:none;stroke:#000000;stroke-width:0.22;stroke-miterlimit:4;stroke-dasharray:none"
         d="m 186,342 v -10.49 h 3 v -10.22 h -3 v -10.58 h 3 v -10.22 h -3 v -10.58 h 3 v -10.22 h -3 v -10.58 h 3 v -10.22 h -3 v -10.58 h 3 v -10.22 h -3 v -10.58 h 3 v -10.22 h -3 v -10.58 h 3 v -10.22 h -3 V 186"
         id="path169" />
    </g>
    <g
       id="panel5970"
       transform="translate(223.7619,-39.309524)"
       style="stroke-width:0.22;stroke-miterlimit:4;stroke-dasharray:none">
      <path
         style="fill:none;stroke:#000000;stroke-width:0.22;stroke-miterlimit:4;stroke-dasharray:none"
         d="m 400,189 h 7.263 v -3 h 10.532 v 3 h 10.174 v -3 h 10.532 v 3 h 10.174 v -3 h 10.532 v 3 h 10.174 v -3 h 10.532 v 3 h 10.174 v -3 h 10.532 v 3 h 10.174 v -3 h 10.532 v 3 h 10.174 v -3 h 10.532 v 3 h 10.174 v -3 h 10.532 v 3 H 570"
         id="path172" />
      <path
         style="fill:none;stroke:#000000;stroke-width:0.22;stroke-miterlimit:4;stroke-dasharray:none"
         d="m 570,189 v 7.31 0 10.58 0 10.22 0 10.58 0 10.22 0 10.58 0 10.22 0 10.58 0 10.22 0 10.58 0 10.22 0 10.58 0 10.22 0 10.58 0 7.31"
         id="path174" />
      <path
         style="fill:none;stroke:#000000;stroke-width:0.22;stroke-miterlimit:4;stroke-dasharray:none"
         d="m 570,339 h -7.263 v 3 h -10.532 v -3 h -10.174 v 3 h -10.532 v -3 h -10.174 v 3 h -10.532 v -3 h -10.174 v 3 h -10.532 v -3 h -10.174 v 3 h -10.532 v -3 h -10.174 v 3 h -10.532 v -3 h -10.174 v 3 h -10.532 v -3 h -10.174 v 3 h -10.532 v -3 H 400"
         id="path176" />
      <path
         style="fill:none;stroke:#000000;stroke-width:0.22;stroke-miterlimit:4;stroke-dasharray:none"
         d="m 400,339 v -7.31 h -3 v -10.58 h 3 v -10.22 h -3 v -10.58 h 3 v -10.22 h -3 v -10.58 h 3 v -10.22 h -3 v -10.58 h 3 v -10.22 h -3 v -10.58 h 3 v -10.22 h -3 v -10.58 h 3 v -10.22 h -3 v -10.58 h 3 V 189"
         id="path178" />
    </g>
    <g
       id="panel1116"
       transform="translate(223.7619,-39.309524)"
       style="stroke-width:0.22;stroke-miterlimit:4;stroke-dasharray:none">
      <path
         style="fill:none;stroke:#000000;stroke-width:0.22;stroke-miterlimit:4;stroke-dasharray:none"
         d="m 186,8 h 10.753 v 0 h 11.021 v 0 h 10.663 v 0 h 11.021 v 0 h 10.663 v 0 h 11.021 v 0 h 10.663 v 0 h 11.021 v 0 h 10.663 v 0 h 11.022 v 0 h 10.663 v 0 h 11.021 v 0 h 10.663 v 0 h 11.021 v 0 h 10.663 v 0 h 11.021 v 0 h 10.663 v 0 h 11.021 V 8 H 392"
         id="path181" />
      <path
         style="fill:none;stroke:#000000;stroke-width:0.22;stroke-miterlimit:4;stroke-dasharray:none"
         d="m 392,8 v 7.4424 h -3 v 10.174 h 3 v 10.5319 h -3 v 10.174 h 3 v 10.5319 h -3 v 10.1739 h 3 v 10.532 h -3 V 87.734 h 3 v 10.532 h -3 v 10.174 h 3 v 10.532 h -3 v 10.174 h 3 v 10.532 h -3 v 10.174 h 3 v 10.532 h -3 v 10.174 h 3 V 178"
         id="path183" />
      <path
         style="fill:none;stroke:#000000;stroke-width:0.22;stroke-miterlimit:4;stroke-dasharray:none"
         d="m 392,178 h -10.753 v 3 h -11.021 v -3 h -10.663 v 3 h -11.021 v -3 h -10.663 v 3 h -11.021 v -3 h -10.663 v 3 h -11.021 v -3 h -10.663 v 3 h -11.022 v -3 h -10.663 v 3 h -11.021 v -3 h -10.663 v 3 h -11.021 v -3 h -10.663 v 3 h -11.021 v -3 h -10.663 v 3 h -11.021 v -3 H 186"
         id="path185" />
      <path
         style="fill:none;stroke:#000000;stroke-width:0.22;stroke-miterlimit:4;stroke-dasharray:none"
         d="m 186,178 v -7.442 h 3 v -10.174 h -3 v -10.532 h 3 v -10.174 h -3 v -10.532 h 3 v -10.174 h -3 V 108.44 h 3 V 98.266 h -3 V 87.734 h 3 V 77.5601 h -3 v -10.532 h 3 V 56.8542 h -3 V 46.3223 h 3 v -10.174 h -3 V 25.6164 h 3 v -10.174 h -3 V 8"
         id="path187" />
    </g>
    <path
       id="rect1173"
       style="fill:none;fill-rule:evenodd;stroke:#000000;stroke-width:0.22;stroke-miterlimit:4;stroke-dasharray:none;stroke-opacity:1"
       d="m 187.01392,323.13404 v 49.38458 h 23.32725 v -36.13784 h 50.7814 v 36.13784 h 49.44452 V 336.5699 h 50.7814 v 35.94872 h 24.0502 v -49.38458 z m 100.27088,0.19016 h 2.99981 v 25.00003 h -2.99981 z" />
    <path
       id="rect1173-4"
       style="fill:none;fill-rule:evenodd;stroke:#000000;stroke-width:0.22;stroke-miterlimit:4;stroke-dasharray:none;stroke-opacity:1"
       d="m 228.21214,400.23992 v 49.38458 h 17.46715 v -35.08933 h 37.60133 v 35.08933 h 17.37258 v -24.93335 h 3.00033 v 24.93335 h 17.48782 v -35.08933 h 37.60133 v 35.08933 h 17.85472 v -49.38458 z" />
  </g>
</svg>
